<?xml version="1.0" encoding="UTF-8" standalone="no"?>
<!DOCTYPE svg PUBLIC "-//W3C//DTD SVG 1.1//EN" "http://www.w3.org/Graphics/SVG/1.1/DTD/svg11.dtd">
<svg xmlns="http://www.w3.org/2000/svg" version="1.1" viewBox="0.00 0.00 1024.00 1024.00">
<g fill="#f18238">
<path d="
  M 249.94 234.59
  Q 249.30 233.95 247.99 232.02
  Q 235.74 214.13 221.75 193.00
  C 217.46 186.53 214.77 180.39 215.10 173.01
  Q 215.66 160.33 224.26 152.06
  C 231.78 144.83 243.45 141.78 253.63 145.33
  C 261.23 147.97 266.93 152.94 272.08 158.68
  Q 281.08 168.70 286.61 174.88
  Q 287.81 176.22 311.00 201.64
  Q 331.57 224.19 335.40 228.42
  Q 373.50 270.51 405.07 304.44
  Q 417.23 317.51 423.51 325.74
  C 426.33 329.45 429.36 335.39 431.66 340.45
  Q 443.87 367.26 454.64 389.58
  Q 456.20 392.80 457.03 395.15
  Q 458.46 399.22 459.01 400.35
  A 1.18 1.16 82.9 0 0 459.81 400.98
  C 472.74 403.86 488.78 409.59 496.55 421.22
  Q 500.72 427.46 503.52 435.03
  Q 506.93 444.27 509.10 452.40
  Q 516.90 481.66 525.49 513.27
  C 527.92 522.23 524.25 529.62 514.20 529.16
  C 508.96 528.92 506.08 528.42 501.04 527.81
  Q 484.68 525.86 464.21 519.29
  C 447.58 513.96 428.71 503.90 418.41 490.19
  Q 404.51 471.69 407.44 447.14
  Q 407.98 442.62 408.64 439.69
  A 0.84 0.83 -63.8 0 0 408.36 438.85
  Q 400.83 432.60 396.69 428.58
  Q 356.66 389.69 350.44 383.30
  Q 348.68 381.50 345.56 377.48
  Q 340.63 371.16 335.80 363.97
  Q 268.27 263.55 262.97 255.59
  A 1.25 1.22 72.7 0 0 261.95 255.04
  Q 232.47 254.85 202.53 255.04
  Q 198.99 255.07 191.52 258.04
  C 177.93 263.46 170.62 275.75 169.42 290.14
  Q 169.21 292.69 169.21 302.36
  Q 169.18 448.75 169.21 613.05
  A 0.27 0.27 0.0 0 0 169.48 613.32
  L 854.27 613.32
  A 0.38 0.38 0.0 0 0 854.65 612.94
  Q 854.59 301.09 854.61 300.14
  Q 854.88 285.78 853.11 280.01
  Q 848.91 266.27 836.75 258.51
  C 833.99 256.75 829.34 255.51 826.70 253.91
  C 821.45 250.73 821.52 243.98 825.17 239.67
  Q 827.01 237.50 829.12 236.31
  A 2.61 2.35 -60.5 0 1 830.02 236.01
  Q 834.42 235.46 838.65 237.37
  Q 866.90 250.10 873.68 280.56
  C 874.34 283.52 874.43 288.64 874.43 292.48
  Q 874.50 587.21 874.41 651.68
  Q 874.40 659.26 871.64 668.59
  C 866.04 687.49 851.03 701.32 832.26 707.50
  C 826.69 709.33 820.37 709.77 813.83 709.77
  Q 717.52 709.71 634.49 709.74
  Q 627.68 709.74 623.43 712.18
  Q 609.11 720.40 602.65 735.68
  Q 595.28 753.10 598.58 771.46
  Q 602.79 794.84 621.61 807.62
  Q 627.26 811.46 636.55 814.07
  C 639.94 815.02 643.58 815.12 647.34 815.73
  Q 648.63 815.94 651.67 815.96
  Q 679.52 816.11 696.25 815.89
  Q 699.15 815.85 701.30 817.44
  Q 705.55 820.58 705.60 825.75
  Q 705.84 851.78 705.69 873.75
  C 705.64 880.71 704.82 885.90 697.18 887.85
  A 2.36 2.11 34.2 0 1 696.58 887.93
  Q 642.50 887.91 594.67 887.94
  Q 590.83 887.94 587.34 887.23
  Q 583.74 886.50 580.07 885.76
  Q 554.48 880.62 547.75 880.08
  Q 546.18 879.95 540.48 879.38
  Q 495.04 874.83 449.22 884.94
  Q 442.63 886.39 439.94 886.97
  Q 435.53 887.92 430.53 887.93
  Q 371.20 887.93 327.53 887.92
  A 2.46 2.22 48.0 0 1 327.05 887.87
  Q 320.72 886.54 318.88 879.80
  A 2.93 2.81 37.4 0 1 318.77 879.09
  Q 318.58 867.05 318.68 828.43
  Q 318.69 823.10 319.73 821.24
  C 321.22 818.56 324.41 815.93 327.83 815.94
  Q 340.44 816.01 378.27 815.90
  Q 380.01 815.89 387.85 813.92
  C 396.58 811.73 404.28 806.74 410.07 800.59
  Q 428.55 781.00 425.84 753.76
  Q 424.09 736.21 413.29 722.96
  Q 406.77 714.97 398.46 711.33
  C 394.21 709.47 389.70 709.74 384.11 709.73
  Q 226.22 709.69 211.36 709.79
  Q 199.58 709.87 193.76 708.40
  C 171.61 702.79 155.10 684.73 150.65 662.66
  Q 149.58 657.35 149.60 634.76
  Q 149.67 517.04 149.62 291.27
  C 149.61 265.39 167.95 242.57 193.01 236.41
  Q 199.33 234.85 207.20 234.90
  Q 222.83 235.01 249.77 235.00
  A 0.24 0.24 0.0 0 0 249.94 234.59
  Z
  M 351.59 352.72
  L 394.23 320.65
  A 0.18 0.18 0.0 0 0 394.25 320.38
  C 362.96 287.19 329.42 251.04 297.33 215.38
  Q 279.11 195.12 262.11 176.74
  Q 258.57 172.91 253.47 167.78
  Q 247.72 162.00 241.43 164.27
  Q 236.83 165.93 234.87 170.15
  C 232.92 174.37 235.14 178.48 237.58 182.17
  Q 263.54 221.38 294.68 268.28
  Q 335.71 330.08 351.24 352.66
  A 0.25 0.24 53.8 0 0 351.59 352.72
  Z
  M 406.11 335.28
  L 362.84 367.82
  A 0.92 0.92 0.0 0 0 362.75 369.21
  L 416.93 422.00
  A 0.88 0.87 44.8 0 0 418.16 422.00
  Q 420.92 419.27 423.64 417.15
  Q 433.13 409.73 439.83 405.21
  A 1.04 1.03 -29.8 0 0 440.19 403.91
  Q 435.36 393.75 411.79 343.46
  Q 411.34 342.49 407.46 335.56
  A 0.92 0.91 -33.1 0 0 406.11 335.28
  Z
  M 504.57 507.47
  Q 501.38 497.43 501.10 496.47
  Q 500.24 493.62 490.38 457.09
  Q 488.12 448.73 485.10 440.44
  Q 480.08 426.70 466.11 422.67
  Q 461.64 421.38 457.02 420.22
  C 454.86 419.68 453.56 419.64 451.58 421.08
  C 443.94 426.62 436.16 431.93 429.40 438.30
  A 4.64 4.59 -15.6 0 0 428.08 440.61
  Q 427.24 444.28 426.75 446.52
  C 423.11 463.31 431.11 478.61 444.84 488.05
  Q 457.92 497.02 475.79 502.23
  Q 488.94 506.06 503.85 508.32
  A 0.66 0.65 85.5 0 0 504.57 507.47
  Z
  M 511.89 689.35
  Q 796.22 689.34 803.75 689.30
  Q 805.24 689.29 816.77 689.44
  Q 835.63 689.68 846.49 675.26
  C 855.80 662.90 854.69 649.04 854.66 634.22
  A 0.25 0.24 89.8 0 0 854.41 633.97
  Q 847.64 634.03 511.89 634.05
  Q 176.13 634.06 169.36 634.00
  A 0.25 0.24 -89.8 0 0 169.12 634.25
  C 169.09 649.07 167.98 662.93 177.29 675.29
  Q 188.15 689.71 207.01 689.47
  Q 218.54 689.32 220.03 689.32
  Q 227.56 689.36 511.89 689.35
  Z
  M 421.41 816.63
  C 427.00 815.55 432.42 816.45 437.98 815.29
  Q 445.33 813.76 464.83 810.41
  Q 496.10 805.05 527.87 807.17
  Q 543.28 808.21 551.02 809.25
  Q 556.28 809.96 583.94 814.54
  Q 592.54 815.97 600.99 816.16
  A 0.23 0.23 0.0 0 0 601.16 815.78
  Q 600.97 815.59 597.80 812.21
  Q 583.30 796.79 579.53 775.69
  Q 574.82 749.22 584.61 727.80
  Q 589.41 717.28 597.12 710.29
  A 0.32 0.32 0.0 0 0 596.90 709.73
  L 427.65 709.73
  A 0.23 0.23 0.0 0 0 427.47 710.10
  C 429.79 713.12 432.41 715.79 434.24 718.86
  C 439.60 727.86 443.44 737.32 444.74 747.69
  Q 445.95 757.36 445.80 760.00
  Q 445.29 768.78 444.50 773.77
  Q 440.42 799.43 421.25 816.31
  A 0.19 0.18 18.8 0 0 421.41 816.63
  Z
  M 685.40 835.68
  Q 658.67 835.62 592.69 835.64
  C 588.05 835.64 583.99 835.39 580.00 834.50
  C 560.22 830.09 539.67 827.00 518.99 826.74
  C 504.26 826.55 492.37 826.68 479.43 828.43
  Q 457.67 831.39 441.21 834.53
  Q 438.51 835.04 436.92 835.30
  Q 434.83 835.64 432.58 835.64
  Q 391.02 835.64 338.60 835.63
  A 0.44 0.43 0.0 0 0 338.16 836.06
  L 338.16 867.33
  A 0.61 0.61 0.0 0 0 338.77 867.94
  Q 374.69 868.00 425.65 867.95
  C 429.19 867.95 433.91 867.35 436.22 866.90
  Q 450.69 864.14 462.26 862.09
  Q 468.17 861.04 481.01 859.52
  C 486.95 858.81 493.09 858.82 499.99 858.21
  Q 503.67 857.89 522.71 858.12
  Q 526.27 858.16 529.29 858.51
  C 534.65 859.14 540.17 858.96 545.75 859.63
  Q 560.28 861.36 576.87 864.63
  Q 593.55 867.91 596.65 867.91
  Q 681.58 868.00 685.69 868.02
  A 0.35 0.35 0.0 0 0 686.04 867.67
  L 686.04 836.32
  A 0.64 0.64 0.0 0 0 685.40 835.68
  Z"
/>
<path d="
  M 698.66 215.93
  A 0.38 0.38 0.0 0 0 698.48 216.64
  Q 710.26 222.84 720.86 232.38
  Q 737.90 247.73 749.35 266.11
  Q 765.45 291.96 767.40 322.42
  A 0.44 0.44 0.0 0 0 767.80 322.82
  Q 780.17 323.70 783.96 335.66
  A 0.64 0.54 -58.7 0 1 783.99 335.85
  L 783.99 365.88
  A 2.02 1.71 -40.3 0 1 783.89 366.48
  Q 781.30 374.19 773.27 374.20
  Q 756.69 374.23 749.94 374.21
  C 741.69 374.19 736.51 374.82 733.14 367.41
  A 1.77 1.75 33.4 0 1 732.99 366.70
  L 732.99 335.20
  A 1.11 0.90 57.6 0 1 733.02 334.95
  Q 736.27 323.46 748.31 323.05
  A 0.79 0.78 82.6 0 0 749.04 322.09
  Q 748.29 318.91 747.92 316.80
  Q 742.81 287.41 723.46 263.28
  Q 703.33 238.16 674.12 224.44
  Q 666.48 220.85 657.73 219.84
  Q 655.95 219.63 654.50 219.72
  A 0.55 0.55 0.0 0 0 653.99 220.28
  C 654.01 223.87 654.38 225.98 653.29 228.49
  Q 651.67 232.24 647.28 233.76
  A 3.72 3.44 33.2 0 1 646.09 233.96
  L 605.94 233.96
  A 2.16 1.87 49.1 0 1 605.38 233.88
  Q 599.90 232.42 598.13 227.45
  A 2.05 1.79 -59.5 0 1 598.02 226.86
  L 597.85 219.71
  A 0.39 0.39 0.0 0 0 597.37 219.34
  Q 591.54 220.70 588.18 221.49
  C 579.10 223.63 570.12 227.51 562.40 232.19
  Q 532.48 250.33 515.85 281.61
  Q 505.75 300.61 502.89 322.37
  A 0.48 0.47 -85.0 0 0 503.34 322.91
  Q 513.45 323.35 517.54 331.90
  Q 519.11 335.19 519.14 341.13
  Q 519.26 362.04 518.89 365.06
  Q 518.12 371.32 512.28 373.77
  A 4.27 4.08 -55.5 0 1 510.71 374.10
  Q 500.52 374.28 481.51 374.21
  Q 475.66 374.19 473.20 372.81
  Q 469.29 370.62 467.90 365.63
  A 1.21 1.08 41.7 0 1 467.87 365.37
  L 467.88 336.26
  A 0.78 0.65 58.3 0 1 467.91 336.05
  Q 470.79 324.66 482.55 322.89
  A 1.12 1.11 -1.4 0 0 483.49 321.91
  Q 487.07 288.95 505.60 260.84
  C 515.65 245.60 528.83 231.32 543.89 221.52
  C 546.69 219.69 550.18 218.00 553.03 216.28
  A 0.18 0.18 0.0 0 0 552.94 215.94
  L 480.67 215.91
  A 0.60 0.58 4.5 0 0 480.08 216.40
  Q 480.05 216.58 478.66 219.68
  Q 477.80 221.57 476.85 222.87
  Q 467.06 236.21 450.98 234.48
  Q 441.81 233.50 434.74 226.27
  Q 425.80 217.15 426.91 203.73
  C 428.58 183.55 450.54 171.40 468.19 181.62
  Q 476.38 186.36 479.95 195.65
  A 0.66 0.66 0.0 0 0 480.57 196.08
  L 597.06 196.08
  A 0.79 0.78 -1.7 0 0 597.85 195.25
  Q 597.76 193.60 597.72 189.51
  Q 597.60 178.11 609.00 177.97
  Q 614.71 177.90 643.76 177.97
  Q 649.13 177.98 652.32 182.30
  C 654.62 185.40 654.17 191.57 653.91 195.57
  A 0.52 0.51 -88.4 0 0 654.42 196.12
  L 770.47 196.12
  A 0.81 0.80 -78.3 0 0 771.21 195.63
  C 775.83 184.50 786.51 176.98 798.52 178.08
  C 812.22 179.33 822.82 189.26 824.77 202.74
  C 825.82 209.94 823.20 218.95 818.21 224.64
  Q 810.76 233.15 799.77 234.56
  C 795.66 235.09 790.00 234.31 785.96 232.46
  Q 775.92 227.87 771.32 216.73
  A 1.30 1.29 -11.1 0 0 770.12 215.93
  L 698.66 215.93
  Z
  M 805.61 206.26
  A 8.84 8.84 0.0 0 0 796.77 197.42
  A 8.84 8.84 0.0 0 0 787.93 206.26
  A 8.84 8.84 0.0 0 0 796.77 215.10
  A 8.84 8.84 0.0 0 0 805.61 206.26
  Z
  M 463.36 206.38
  A 8.84 8.84 0.0 0 0 454.52 197.54
  A 8.84 8.84 0.0 0 0 445.68 206.38
  A 8.84 8.84 0.0 0 0 454.52 215.22
  A 8.84 8.84 0.0 0 0 463.36 206.38
  Z
  M 635.4139 198.7281
  A 0.79 0.79 0.0 0 0 634.6252 197.9367
  L 615.5053 197.9033
  A 0.79 0.79 0.0 0 0 614.7139 198.6919
  L 614.6861 214.5919
  A 0.79 0.79 0.0 0 0 615.4748 215.3833
  L 634.5947 215.4167
  A 0.79 0.79 0.0 0 0 635.3861 214.6281
  L 635.4139 198.7281
  Z
  M 765.6938 341.5207
  A 0.63 0.63 0.0 0 0 765.0605 340.8940
  L 751.2807 340.9662
  A 0.63 0.63 0.0 0 0 750.6540 341.5995
  L 750.7262 355.3793
  A 0.63 0.63 0.0 0 0 751.3595 356.0060
  L 765.1393 355.9338
  A 0.63 0.63 0.0 0 0 765.7660 355.3005
  L 765.6938 341.5207
  Z
  M 501.0582 341.7569
  A 0.75 0.75 0.0 0 0 500.3069 341.0082
  L 486.8269 341.0318
  A 0.75 0.75 0.0 0 0 486.0782 341.7831
  L 486.1018 355.2631
  A 0.75 0.75 0.0 0 0 486.8531 356.0118
  L 500.3331 355.9882
  A 0.75 0.75 0.0 0 0 501.0818 355.2369
  L 501.0582 341.7569
  Z"
/>
<path d="
  M 368.58 235.02
  Q 379.68 234.84 407.83 234.82
  Q 413.19 234.82 415.46 236.31
  Q 419.14 238.72 419.94 243.46
  Q 420.98 249.63 415.88 253.40
  Q 413.82 254.93 411.76 254.96
  Q 395.33 255.15 388.29 254.88
  Q 386.23 254.80 384.35 252.88
  Q 371.95 240.16 368.09 236.20
  A 0.70 0.69 -22.6 0 1 368.58 235.02
  Z"
/>
<path d="
  M 573.05 460.57
  Q 573.12 428.76 555.38 402.09
  Q 554.05 400.09 549.77 395.34
  C 545.06 390.10 542.78 386.70 546.15 380.62
  Q 550.10 373.49 568.55 343.28
  Q 596.66 297.25 613.36 269.64
  Q 617.51 262.77 619.00 261.48
  C 622.49 258.47 628.59 257.69 632.32 260.99
  Q 633.34 261.89 634.70 264.12
  Q 686.62 349.53 704.90 379.85
  Q 705.31 380.53 706.74 384.51
  A 2.85 2.85 0.0 0 1 706.91 385.48
  C 706.94 390.22 703.38 393.72 700.12 397.22
  Q 697.75 399.76 695.63 403.01
  Q 682.87 422.55 680.02 446.52
  Q 679.19 453.57 678.67 459.96
  A 1.00 1.00 0.0 0 0 679.71 461.04
  C 687.26 460.70 690.33 464.76 690.31 472.01
  C 690.26 494.02 690.54 507.31 689.96 516.17
  A 5.02 4.52 -37.2 0 1 689.76 517.22
  C 687.40 524.66 681.73 524.22 674.03 524.21
  Q 627.69 524.16 571.91 524.20
  Q 561.14 524.21 561.22 513.47
  Q 561.39 491.97 561.31 470.02
  C 561.29 463.22 566.25 460.93 572.39 461.20
  A 0.63 0.63 0.0 0 0 573.05 460.57
  Z
  M 634.57 301.10
  Q 634.28 301.77 634.61 302.59
  Q 634.87 303.27 634.88 304.05
  Q 634.96 325.41 634.90 361.83
  A 0.76 0.76 0.0 0 0 635.48 362.57
  C 641.65 364.15 647.00 371.23 648.75 376.65
  C 652.41 387.98 647.89 399.80 637.38 405.73
  C 629.02 410.44 617.43 409.87 609.84 403.28
  C 602.29 396.71 598.86 387.81 601.88 377.91
  Q 605.34 366.59 616.05 362.52
  A 1.34 1.32 -10.6 0 0 616.91 361.28
  L 616.93 302.17
  A 0.46 0.46 0.0 0 0 616.21 301.79
  Q 616.03 301.91 615.70 302.45
  Q 588.30 347.50 573.15 372.64
  Q 570.03 377.82 566.09 383.93
  A 1.02 1.02 0.0 0 0 566.17 385.15
  Q 582.89 404.87 588.50 430.74
  Q 591.97 446.70 591.99 460.39
  A 0.61 0.60 -0.0 0 0 592.60 460.99
  L 658.80 460.99
  A 0.58 0.58 0.0 0 0 659.38 460.44
  C 660.49 434.51 666.52 408.48 683.23 387.98
  Q 683.33 387.86 685.47 384.96
  A 0.51 0.50 -42.8 0 0 685.50 384.39
  L 634.99 301.07
  A 0.24 0.24 0.0 0 0 634.57 301.10
  Z
  M 631.18 384.33
  A 5.88 5.88 0.0 0 0 625.30 378.45
  A 5.88 5.88 0.0 0 0 619.42 384.33
  A 5.88 5.88 0.0 0 0 625.30 390.21
  A 5.88 5.88 0.0 0 0 631.18 384.33
  Z
  M 670.44 480.39
  A 0.43 0.43 0.0 0 0 670.01 479.96
  L 580.63 479.96
  A 0.43 0.43 0.0 0 0 580.20 480.39
  L 580.20 504.45
  A 0.43 0.43 0.0 0 0 580.63 504.88
  L 670.01 504.88
  A 0.43 0.43 0.0 0 0 670.44 504.45
  L 670.44 480.39
  Z"
/>
<path d="
  M 804.99 567.08
  Q 805.08 481.25 804.94 397.00
  Q 804.94 393.05 805.18 392.13
  C 806.73 386.22 813.98 383.66 819.30 385.84
  Q 824.61 388.02 824.58 394.74
  Q 824.48 418.72 824.58 578.99
  Q 824.59 583.48 820.86 586.38
  Q 818.54 588.18 813.74 588.19
  C 742.55 588.35 545.43 588.16 213.26 588.17
  Q 205.46 588.17 203.68 586.94
  Q 200.90 585.02 199.63 581.66
  Q 198.95 579.87 198.96 574.92
  Q 199.00 556.84 198.96 295.50
  Q 198.96 289.61 199.89 287.99
  A 7.18 1.85 -62.0 0 1 200.40 287.13
  Q 202.96 282.87 209.98 282.89
  Q 239.24 282.96 255.08 282.96
  A 3.35 3.32 56.1 0 1 256.37 283.22
  C 262.12 285.58 265.50 290.75 263.15 296.90
  Q 260.88 302.86 254.51 302.93
  Q 251.57 302.96 219.24 302.89
  A 0.30 0.30 0.0 0 0 218.94 303.19
  L 218.94 566.88
  A 0.48 0.48 0.0 0 0 219.42 567.36
  L 804.71 567.36
  A 0.28 0.28 0.0 0 0 804.99 567.08
  Z"
/>
</g>
</svg>
