<?xml version="1.0" encoding="UTF-8" standalone="no"?>
<!DOCTYPE svg PUBLIC "-//W3C//DTD SVG 1.1//EN" "http://www.w3.org/Graphics/SVG/1.1/DTD/svg11.dtd">
<svg xmlns="http://www.w3.org/2000/svg" version="1.1" viewBox="0.00 0.00 1024.00 1024.00">
<g fill="#ed7d2c">
<path d="
  M 230.33 431.08
  A 0.60 0.59 0.0 0 0 230.93 430.49
  Q 230.95 325.55 230.89 211.16
  Q 230.88 193.61 231.81 189.97
  C 234.79 178.40 244.40 168.66 256.44 166.02
  Q 259.32 165.39 267.10 165.39
  Q 562.89 165.37 762.25 165.41
  Q 764.77 165.42 768.72 166.32
  C 779.81 168.86 788.36 177.65 791.60 188.12
  Q 792.88 192.26 792.88 200.52
  Q 792.81 309.99 792.91 418.75
  Q 792.92 425.91 793.04 430.68
  A 0.48 0.47 89.4 0 0 793.51 431.15
  L 849.67 431.04
  A 2.11 1.99 52.4 0 1 850.30 431.14
  Q 854.58 432.47 855.85 437.11
  A 3.49 3.33 41.4 0 1 855.96 438.40
  Q 853.64 462.13 842.96 481.72
  C 829.57 506.26 807.92 526.65 783.59 540.83
  Q 770.50 548.46 755.78 554.77
  Q 742.80 560.32 711.96 571.19
  C 704.76 573.72 697.71 576.88 691.14 580.38
  Q 672.42 590.33 662.75 606.64
  Q 653.12 622.88 657.55 640.37
  C 665.53 671.91 700.31 689.21 729.91 692.54
  Q 736.63 693.29 749.44 693.37
  Q 751.36 693.39 752.73 694.92
  A 1.39 1.36 24.9 0 1 753.07 695.82
  L 753.07 775.03
  A 2.05 2.04 90.0 0 1 751.03 777.08
  L 606.56 777.08
  A 2.72 2.71 -32.2 0 1 605.40 776.82
  Q 604.06 776.19 601.22 773.92
  Q 597.85 771.24 591.17 768.11
  Q 581.71 763.68 570.38 760.64
  Q 523.81 748.14 476.23 754.95
  Q 459.03 757.42 442.85 763.13
  Q 429.83 767.73 419.38 775.56
  Q 417.39 777.05 415.06 777.06
  Q 403.54 777.11 273.49 777.07
  Q 270.40 777.07 270.40 774.01
  Q 270.42 700.60 270.46 697.50
  Q 270.48 695.46 271.81 693.97
  A 1.36 1.33 -72.1 0 1 272.65 693.53
  Q 274.85 693.28 276.02 693.33
  Q 301.10 694.48 325.42 683.19
  Q 342.90 675.08 355.09 661.10
  C 361.95 653.25 366.36 643.43 367.14 632.76
  C 368.31 616.95 361.60 602.94 349.90 592.62
  C 338.66 582.71 326.82 576.96 312.55 571.68
  C 288.27 562.71 274.31 557.80 256.02 548.96
  C 231.86 537.29 209.04 521.21 191.93 499.84
  Q 171.42 474.22 168.18 441.27
  C 167.81 437.53 168.81 433.88 172.20 431.77
  Q 173.46 430.99 177.04 431.01
  Q 207.46 431.17 230.33 431.08
  Z
  M 511.79 251.04
  Q 516.20 251.04 771.10 250.98
  A 0.47 0.47 0.0 0 0 771.57 250.50
  Q 771.56 247.04 771.53 203.00
  Q 771.52 197.80 770.51 195.57
  Q 766.96 187.71 758.50 187.67
  Q 745.90 187.62 511.79 187.63
  Q 277.68 187.63 265.09 187.68
  Q 256.63 187.72 253.08 195.58
  Q 252.07 197.81 252.06 203.01
  Q 252.03 247.05 252.02 250.51
  A 0.47 0.47 0.0 0 0 252.49 250.99
  Q 507.38 251.04 511.79 251.04
  Z
  M 511.84 452.18
  Q 614.06 452.17 626.50 452.29
  Q 629.81 452.32 629.92 455.69
  Q 630.13 462.58 629.97 469.91
  A 0.74 0.74 0.0 0 0 630.71 470.67
  L 645.77 470.67
  A 0.76 0.76 0.0 0 0 646.53 469.91
  Q 646.47 441.58 646.32 437.20
  Q 646.12 431.17 652.47 431.18
  Q 707.86 431.22 771.02 431.17
  A 0.57 0.57 0.0 0 0 771.59 430.60
  L 771.59 272.33
  A 0.41 0.40 0.2 0 0 771.19 271.93
  Q 641.52 271.93 511.82 271.95
  Q 382.11 271.97 252.44 271.99
  A 0.41 0.40 -0.2 0 0 252.04 272.40
  L 252.08 430.67
  A 0.57 0.57 0.0 0 0 252.65 431.24
  Q 315.81 431.27 371.20 431.22
  Q 377.55 431.21 377.35 437.24
  Q 377.20 441.62 377.15 469.95
  A 0.76 0.76 0.0 0 0 377.91 470.71
  L 392.97 470.70
  A 0.74 0.74 0.0 0 0 393.71 469.94
  Q 393.55 462.61 393.76 455.72
  Q 393.87 452.35 397.18 452.32
  Q 409.62 452.19 511.84 452.18
  Z
  M 630.41 492.96
  A 0.51 0.50 -88.9 0 0 629.89 493.47
  Q 630.04 519.77 629.97 646.04
  Q 629.97 657.07 631.04 662.25
  Q 633.77 675.42 643.61 691.10
  Q 644.30 692.21 647.64 695.10
  A 1.01 0.95 -23.4 0 0 648.28 695.33
  L 673.37 695.33
  A 0.31 0.31 0.0 0 0 673.54 694.76
  Q 666.81 690.21 661.66 685.86
  C 643.12 670.16 632.71 647.21 635.03 623.03
  Q 636.41 608.58 643.26 596.47
  C 656.05 573.86 677.71 560.61 701.92 551.80
  C 725.77 543.12 742.60 537.30 761.84 527.57
  C 792.52 512.06 821.11 488.39 831.07 454.15
  A 0.58 0.58 0.0 0 0 830.51 453.41
  L 667.53 453.41
  A 0.35 0.35 0.0 0 0 667.18 453.77
  Q 667.45 470.51 667.28 489.03
  C 667.26 491.76 664.86 492.99 662.26 493.05
  Q 646.18 493.41 630.41 492.96
  Z
  M 630.41 694.93
  Q 629.81 692.21 628.13 689.86
  Q 620.45 679.09 610.63 669.99
  A 4.72 4.70 21.4 0 1 609.11 666.53
  L 609.11 476.68
  A 0.80 0.80 0.0 0 0 608.31 475.88
  L 415.75 475.88
  A 1.11 1.11 0.0 0 0 414.64 476.99
  L 414.64 658.34
  A 0.66 0.65 -86.5 0 0 415.21 658.99
  L 439.09 661.90
  A 0.34 0.34 0.0 0 1 439.28 662.48
  Q 438.77 662.98 437.95 663.19
  Q 434.36 664.13 426.65 665.81
  Q 422.02 666.81 415.21 667.56
  Q 406.71 668.50 402.99 668.82
  Q 397.89 669.27 394.54 668.86
  A 1.29 1.29 0.0 0 1 393.41 667.58
  L 393.41 493.47
  A 0.37 0.37 0.0 0 0 393.04 493.10
  Q 383.45 493.21 364.76 493.66
  C 360.39 493.76 356.98 493.08 357.03 487.98
  Q 357.09 482.12 357.04 454.24
  A 0.58 0.57 89.5 0 0 356.47 453.67
  L 192.30 453.67
  A 0.69 0.69 0.0 0 0 191.65 454.58
  Q 197.85 472.89 208.78 486.76
  C 228.25 511.48 257.28 527.31 286.40 538.58
  C 302.72 544.90 318.90 549.89 334.68 556.81
  Q 353.32 564.98 367.38 578.76
  C 382.75 593.81 391.52 616.66 388.32 638.47
  Q 386.41 651.43 380.05 662.94
  C 372.94 675.78 360.45 687.16 347.70 694.76
  A 0.35 0.35 0.0 0 0 347.89 695.41
  Q 361.98 695.28 388.76 695.39
  Q 391.92 695.40 393.45 694.69
  Q 430.70 677.24 468.76 672.13
  Q 473.66 671.47 474.18 671.24
  A 2.06 1.95 -55.1 0 1 475.05 671.06
  C 478.82 671.13 482.29 670.52 486.60 670.19
  Q 513.25 668.18 543.48 671.08
  Q 589.23 675.47 630.10 695.17
  A 0.22 0.22 0.0 0 0 630.41 694.93
  Z
  M 731.95 754.66
  L 731.95 716.30
  A 0.27 0.26 0.0 0 0 731.68 716.04
  Q 711.80 716.07 629.00 716.03
  Q 625.66 716.03 623.62 715.38
  C 621.42 714.69 618.67 713.79 616.90 713.05
  Q 599.49 705.73 595.16 704.38
  Q 570.66 696.75 546.43 693.49
  C 542.76 693.00 536.56 692.45 533.67 692.19
  Q 511.11 690.16 489.01 692.14
  Q 471.87 693.67 463.75 695.00
  Q 446.43 697.85 426.70 704.50
  C 418.39 707.30 411.61 710.68 404.31 713.81
  Q 398.92 716.13 394.51 716.08
  Q 385.76 715.97 292.39 716.04
  A 0.45 0.45 0.0 0 0 291.94 716.49
  L 291.94 754.66
  A 0.42 0.42 0.0 0 0 292.36 755.08
  Q 328.82 754.89 407.02 755.12
  Q 410.66 755.13 411.96 753.97
  Q 414.28 751.91 415.16 751.41
  Q 424.72 746.05 431.66 743.43
  Q 451.76 735.86 475.70 732.62
  Q 478.55 732.23 482.58 731.99
  Q 488.49 731.63 489.51 731.55
  Q 518.12 729.12 550.30 733.02
  C 561.81 734.42 573.43 736.94 584.67 740.37
  C 595.28 743.62 605.90 747.90 614.38 754.74
  A 1.36 1.34 -25.2 0 0 615.23 755.04
  L 731.57 755.04
  A 0.38 0.38 0.0 0 0 731.95 754.66
  Z"
/>
<rect x="-13.46" y="-10.62" transform="translate(294.05,219.28) rotate(0.2)" width="26.92" height="21.24" rx="1.42"/>
<rect x="330.90" y="208.58" width="28.08" height="21.30" rx="1.60"/>
<rect x="381.21" y="208.63" width="28.74" height="21.28" rx="1.34"/>
<path d="
  M 463.31 297.28
  C 468.41 299.73 468.05 303.20 468.04 308.82
  Q 468.03 349.36 468.10 399.37
  Q 468.11 402.05 467.94 405.17
  A 2.61 2.60 59.6 0 1 467.69 406.14
  Q 466.34 408.92 463.60 410.32
  Q 462.11 411.08 457.77 411.08
  Q 382.42 411.07 291.21 411.08
  Q 285.73 411.08 283.58 409.64
  Q 280.36 407.47 280.37 402.76
  Q 280.53 340.49 280.37 304.00
  Q 280.35 299.95 282.93 298.18
  Q 284.63 297.02 289.30 297.02
  Q 399.98 297.04 461.91 296.96
  A 3.31 3.18 56.7 0 1 463.31 297.28
  Z
  M 446.97 318.75
  A 0.39 0.39 0.0 0 0 446.58 318.36
  L 302.38 318.36
  A 0.39 0.39 0.0 0 0 301.99 318.75
  L 301.99 389.17
  A 0.39 0.39 0.0 0 0 302.38 389.56
  L 446.58 389.56
  A 0.39 0.39 0.0 0 0 446.97 389.17
  L 446.97 318.75
  Z"
/>
<rect x="498.72" y="296.99" width="243.94" height="21.34" rx="1.16"/>
<rect x="498.58" y="340.95" width="244.10" height="23.12" rx="1.11"/>
<path d="
  M 673.16 388.02
  L 673.16 408.32
  A 1.07 1.07 0.0 0 1 672.09 409.39
  L 499.67 409.39
  A 1.07 1.07 0.0 0 1 498.60 408.32
  L 498.60 388.02
  A 1.07 1.07 0.0 0 1 499.67 386.95
  L 672.09 386.95
  A 1.07 1.07 0.0 0 1 673.16 388.02
  Z"
/>
<path d="
  M 557.92 544.88
  A 0.32 0.32 0.0 0 0 557.35 544.68
  L 512.71 599.37
  A 0.97 0.96 44.8 0 1 511.22 599.37
  L 465.29 542.97
  A 0.20 0.20 0.0 0 0 464.93 543.10
  Q 465.23 570.98 465.07 622.23
  C 465.05 627.58 464.72 631.19 467.63 634.71
  Q 468.71 636.03 474.83 639.40
  A 1.30 1.26 88.6 0 1 475.32 639.88
  L 475.76 640.67
  A 0.90 0.89 75.3 0 1 474.99 642.00
  L 436.91 642.00
  A 1.05 1.05 0.0 0 1 435.86 640.95
  L 435.86 501.97
  A 1.32 1.32 0.0 0 1 437.18 500.65
  L 463.12 500.65
  A 4.24 4.23 69.8 0 1 466.35 502.15
  L 511.34 555.62
  A 0.61 0.60 44.7 0 0 512.27 555.62
  L 557.39 501.64
  A 3.14 3.13 -69.8 0 1 559.78 500.53
  L 586.17 500.53
  A 1.21 1.20 90.0 0 1 587.37 501.74
  L 587.37 640.58
  A 1.56 1.56 0.0 0 1 585.81 642.14
  L 559.06 642.14
  A 1.15 1.14 90.0 0 1 557.92 640.99
  L 557.92 544.88
  Z"
/>
</g>
</svg>
