<?xml version="1.0" encoding="UTF-8" standalone="no"?>
<!DOCTYPE svg PUBLIC "-//W3C//DTD SVG 1.1//EN" "http://www.w3.org/Graphics/SVG/1.1/DTD/svg11.dtd">
<svg xmlns="http://www.w3.org/2000/svg" version="1.1" viewBox="0.00 0.00 185.00 214.00">
<g fill="#cd7137" fill-opacity="0.992">
<path d="
  M 152.81 157.83
  L 152.81 194.87
  A 1.96 1.95 -4.3 0 1 151.14 196.80
  L 146.88 197.43
  A 4.20 4.17 58.7 0 1 143.77 196.66
  C 138.91 193.05 135.05 188.77 130.78 184.49
  Q 114.86 168.54 105.95 159.98
  Q 104.61 158.70 102.59 158.82
  Q 98.38 159.07 94.00 159.06
  Q 69.03 158.97 45.25 159.00
  C 36.35 159.01 28.64 156.49 21.40 151.27
  Q 3.66 138.51 3.68 114.05
  Q 3.75 48.50 3.78 43.75
  C 3.86 30.32 13.69 14.10 25.88 8.35
  Q 34.25 4.40 42.23 3.58
  Q 42.81 3.52 59.29 3.52
  Q 122.13 3.53 123.20 3.52
  Q 141.25 3.33 147.21 4.66
  C 162.18 8.01 175.80 19.86 179.79 34.96
  C 181.13 40.07 181.48 45.90 181.48 51.72
  Q 181.49 107.17 181.38 118.87
  Q 181.30 126.96 176.84 135.91
  Q 169.35 150.92 153.50 156.83
  A 1.07 1.07 0.0 0 0 152.81 157.83
  Z
  M 143.91 185.66
  L 143.91 151.70
  A 0.76 0.76 0.0 0 1 144.42 150.98
  C 147.99 149.74 150.84 149.12 154.03 147.35
  C 162.69 142.53 168.12 135.16 171.02 125.93
  Q 171.94 122.99 171.94 116.98
  Q 171.95 67.65 171.92 44.66
  A 7.04 6.78 40.1 0 0 171.77 43.23
  C 171.00 39.72 170.96 36.72 169.63 33.45
  C 165.38 23.04 155.38 15.46 144.56 13.35
  C 140.96 12.65 135.81 12.73 133.25 12.72
  Q 120.69 12.64 49.06 12.62
  Q 41.41 12.62 38.01 13.42
  C 26.00 16.24 17.15 26.24 13.86 37.79
  Q 12.56 42.37 12.76 59.82
  Q 12.79 62.65 12.83 113.27
  C 12.83 115.64 12.66 120.16 13.28 123.21
  C 16.45 138.70 29.96 149.30 45.49 150.53
  Q 49.66 150.86 53.50 150.85
  Q 80.11 150.76 105.31 150.82
  Q 106.69 150.83 106.70 150.83
  C 109.78 150.51 110.11 152.39 111.78 154.05
  Q 127.47 169.63 143.45 185.85
  A 0.27 0.27 0.0 0 0 143.91 185.66
  Z"
/>
<path d="
  M 65.16 60.13
  Q 65.31 42.17 81.95 36.21
  C 91.57 32.77 104.63 35.17 111.46 42.79
  Q 117.03 49.00 117.88 56.81
  C 119.07 67.75 114.05 76.27 105.49 82.52
  Q 96.01 89.44 95.85 100.45
  A 0.61 0.60 -89.5 0 1 95.25 101.05
  L 87.18 101.05
  A 1.61 1.60 83.4 0 1 85.62 99.81
  C 83.83 92.33 87.83 83.76 93.50 78.99
  C 101.13 72.57 108.63 66.28 105.61 55.20
  Q 104.47 50.98 99.85 47.68
  A 3.02 2.85 69.9 0 0 99.01 47.26
  Q 85.37 42.78 78.19 54.58
  A 2.17 2.03 -25.9 0 0 77.92 55.28
  L 76.54 62.21
  A 0.72 0.72 0.0 0 1 75.34 62.60
  L 75.12 62.40
  A 1.07 1.02 70.3 0 0 74.56 62.12
  L 65.70 60.76
  A 0.63 0.62 4.7 0 1 65.16 60.13
  Z"
/>
<ellipse cx="0.00" cy="0.00" transform="translate(92.24,118.90) rotate(-88.1)" rx="8.23" ry="7.99"/>
<path d="
  M 94.01 174.60
  L 111.99 192.58
  A 0.32 0.32 0.0 0 1 112.00 193.03
  L 93.61 212.56
  A 0.32 0.32 0.0 0 1 93.15 212.57
  L 74.60 194.02
  A 0.32 0.32 0.0 0 1 74.60 193.56
  L 93.55 174.60
  A 0.32 0.32 0.0 0 1 94.01 174.60
  Z
  M 100.0526 193.6651
  A 0.61 0.61 0.0 0 0 100.0496 192.8024
  L 94.1318 186.9258
  A 0.61 0.61 0.0 0 0 93.2691 186.9288
  L 86.9274 193.3149
  A 0.61 0.61 0.0 0 0 86.9304 194.1776
  L 92.8482 200.0542
  A 0.61 0.61 0.0 0 0 93.7109 200.0512
  L 100.0526 193.6651
  Z"
/>
</g>
</svg>
