<?xml version="1.0" encoding="UTF-8" standalone="no"?>
<!DOCTYPE svg PUBLIC "-//W3C//DTD SVG 1.1//EN" "http://www.w3.org/Graphics/SVG/1.1/DTD/svg11.dtd">
<svg xmlns="http://www.w3.org/2000/svg" version="1.1" viewBox="0.00 0.00 414.00 261.00">
<g fill="#cf7238" fill-opacity="0.984">
<path d="
  M 56.77 125.71
  A 0.55 0.55 0.0 0 0 56.20 126.37
  Q 59.77 144.16 65.90 162.91
  Q 68.66 171.34 70.54 174.46
  Q 75.83 183.23 76.09 183.67
  C 77.52 186.07 76.94 188.23 74.98 190.33
  Q 69.61 196.09 68.06 197.83
  A 16.50 16.38 -11.4 0 0 65.60 201.50
  Q 56.59 220.04 49.77 241.00
  Q 49.34 242.29 47.96 243.54
  A 1.23 1.22 25.7 0 1 47.07 243.85
  Q 46.50 243.82 40.53 244.12
  Q 36.83 244.30 35.76 241.01
  Q 31.24 227.11 23.31 209.46
  Q 20.27 202.70 14.75 197.75
  C 10.24 193.70 6.47 191.79 8.17 184.75
  A 3.22 3.17 -23.5 0 1 8.52 183.88
  Q 17.64 168.29 18.92 164.85
  Q 25.56 146.88 27.97 130.24
  Q 28.39 127.37 28.37 126.70
  A 0.84 0.84 0.0 0 0 27.84 125.95
  C 24.50 124.62 21.82 124.29 19.94 120.82
  Q 17.22 115.81 18.95 110.88
  Q 21.26 104.26 18.19 97.85
  C 15.10 91.41 9.54 82.14 11.89 75.41
  Q 14.79 67.14 33.02 15.55
  Q 33.58 13.97 35.70 8.76
  Q 37.65 3.97 39.47 2.69
  Q 42.61 0.48 46.63 3.23
  C 48.20 4.30 49.21 7.86 49.82 9.47
  Q 60.95 38.97 65.73 52.99
  Q 72.42 72.57 73.90 75.99
  C 75.53 79.76 75.23 82.82 73.76 86.30
  Q 71.92 90.64 68.63 96.12
  Q 66.45 99.76 66.03 103.43
  A 3.41 3.38 39.2 0 0 66.18 104.86
  Q 68.52 111.74 68.42 115.23
  Q 68.39 116.60 66.42 121.52
  A 3.72 3.72 0.0 0 1 65.35 122.99
  Q 61.80 125.99 56.77 125.71
  Z
  M 42.40 11.67
  Q 37.75 23.82 28.93 49.45
  Q 23.05 66.52 22.34 68.25
  Q 22.12 68.79 19.70 76.02
  Q 18.27 80.27 20.29 84.70
  C 22.86 90.35 25.97 95.72 27.80 102.43
  A 5.13 5.10 -46.8 0 1 27.87 104.81
  Q 26.99 109.06 25.80 112.93
  C 25.11 115.18 25.73 117.84 28.43 117.81
  Q 46.87 117.61 59.31 117.61
  A 1.68 1.67 87.4 0 0 60.98 115.77
  L 60.53 111.17
  A 0.32 0.24 -63.4 0 0 60.51 111.06
  L 58.31 105.11
  A 2.79 2.76 40.8 0 1 58.19 103.58
  Q 59.28 98.02 60.86 95.12
  Q 64.84 87.87 67.44 81.47
  A 1.72 1.68 -44.3 0 0 67.47 80.25
  L 42.99 11.67
  A 0.32 0.31 -44.8 0 0 42.40 11.67
  Z
  M 36.32 126.48
  Q 36.13 128.59 36.04 129.01
  Q 34.19 137.56 32.78 144.07
  Q 31.20 151.37 26.17 165.87
  Q 24.52 170.63 21.96 175.09
  Q 16.94 183.80 16.88 183.89
  Q 14.54 187.60 17.11 189.69
  Q 26.05 197.00 30.39 207.13
  Q 36.94 222.44 38.75 226.93
  A 0.43 0.43 0.0 0 0 39.58 226.70
  L 39.10 223.65
  A 1.61 1.04 51.3 0 1 39.07 223.36
  L 39.13 192.45
  A 4.18 4.16 24.6 0 0 38.10 189.71
  C 35.81 187.10 33.95 185.42 35.18 181.64
  Q 35.97 179.23 38.59 177.69
  C 43.68 174.70 53.23 181.02 48.86 187.12
  Q 48.20 188.04 46.23 190.33
  A 0.97 0.95 -25.2 0 0 46.00 190.95
  L 46.00 227.17
  A 0.41 0.41 0.0 0 0 46.61 227.52
  Q 47.15 227.21 47.36 226.62
  Q 52.83 211.20 56.09 203.89
  Q 60.14 194.80 66.88 188.68
  Q 68.26 187.43 68.52 185.86
  A 1.43 1.39 33.1 0 0 68.29 184.84
  Q 60.71 173.51 57.16 160.32
  C 54.20 149.35 50.76 138.78 49.62 127.06
  A 1.31 1.29 87.1 0 0 48.33 125.88
  L 36.98 125.88
  A 0.67 0.66 -87.1 0 0 36.32 126.48
  Z"
/>
<path d="
  M 95.12 33.96
  Q 94.39 27.79 96.05 24.60
  Q 99.37 18.22 106.43 20.53
  A 1.45 1.33 72.3 0 1 106.97 20.84
  L 112.09 25.62
  A 0.95 0.94 37.8 0 0 113.53 25.44
  C 114.81 23.48 115.42 22.34 117.34 21.36
  Q 121.66 19.17 126.94 20.15
  Q 128.38 20.42 129.77 22.54
  C 132.82 27.18 129.72 35.49 126.83 39.77
  A 4.06 4.03 -34.5 0 0 126.23 42.94
  Q 126.88 45.80 128.03 48.41
  Q 128.44 49.36 128.61 52.91
  A 2.15 2.14 -34.1 0 1 128.41 53.94
  Q 126.15 58.85 121.20 60.11
  A 2.58 2.55 -82.3 0 0 119.60 61.34
  L 71.36 147.29
  A 1.02 1.00 -81.7 0 1 70.70 147.79
  Q 68.73 148.25 68.16 145.81
  C 66.79 139.94 69.65 135.18 72.98 129.20
  Q 106.45 69.11 107.02 68.10
  Q 109.55 63.64 112.28 59.07
  A 1.37 1.36 -42.1 0 0 112.35 57.80
  Q 111.68 56.32 110.68 55.34
  Q 106.45 51.21 103.13 46.74
  Q 100.06 42.62 95.56 42.21
  C 91.27 41.82 88.92 47.33 87.11 51.09
  Q 84.20 57.15 80.41 62.63
  Q 79.16 64.45 76.92 65.86
  A 0.64 0.63 -33.3 0 1 76.07 65.69
  C 73.68 62.35 74.97 58.24 76.92 54.89
  Q 81.72 46.64 82.46 44.72
  Q 84.57 39.18 85.40 38.38
  A 3.46 3.01 -78.0 0 1 86.05 37.89
  Q 89.59 35.79 94.59 34.71
  A 0.68 0.68 0.0 0 0 95.12 33.96
  Z
  M 121.41 26.91
  Q 118.20 28.82 115.01 32.01
  Q 112.81 34.22 109.98 32.28
  C 108.77 31.45 106.27 27.39 103.59 26.84
  A 1.76 1.76 0.0 0 0 101.53 28.13
  Q 100.84 30.88 101.14 33.62
  A 4.26 4.15 -65.4 0 0 101.80 35.47
  Q 104.20 39.21 109.41 45.33
  Q 112.37 48.80 115.36 52.39
  C 117.81 55.32 121.30 53.57 121.73 50.20
  C 121.98 48.24 119.02 44.67 118.08 42.86
  A 2.67 2.67 0.0 0 1 118.61 39.68
  Q 122.97 35.56 123.91 29.30
  A 2.34 2.14 -81.1 0 0 122.17 26.67
  Q 121.89 26.63 121.41 26.91
  Z"
/>
<path d="
  M 344.09 106.77
  A 0.65 0.65 0.0 0 1 343.03 106.41
  Q 342.81 105.33 342.83 104.23
  Q 343.20 88.71 343.21 70.27
  Q 343.22 67.18 343.97 62.86
  A 3.04 2.96 -25.8 0 1 344.30 61.95
  Q 348.18 55.14 354.29 48.50
  A 1.63 1.63 0.0 0 0 354.41 46.46
  Q 351.02 41.73 352.18 35.64
  Q 353.50 28.75 360.18 25.96
  C 364.50 24.15 367.00 24.57 371.19 26.25
  C 377.48 28.77 380.55 36.65 377.86 42.85
  Q 374.45 50.73 366.00 50.81
  Q 364.15 50.83 362.27 50.83
  A 1.17 1.15 -78.5 0 0 361.20 51.55
  Q 360.07 54.32 357.76 56.50
  C 355.53 58.60 353.66 61.32 352.18 63.69
  Q 351.24 65.21 351.21 69.01
  Q 351.09 89.92 350.92 97.25
  Q 350.87 99.51 349.45 102.05
  A 2.57 2.46 86.0 0 1 348.90 102.71
  L 344.09 106.77
  Z
  M 371.29 38.37
  A 5.71 5.71 0.0 0 0 365.58 32.66
  A 5.71 5.71 0.0 0 0 359.87 38.37
  A 5.71 5.71 0.0 0 0 365.58 44.08
  A 5.71 5.71 0.0 0 0 371.29 38.37
  Z"
/>
<path d="
  M 99.32 131.20
  C 96.70 127.73 92.98 123.36 96.02 119.10
  Q 111.38 97.50 131.77 80.78
  C 145.24 69.73 160.73 59.94 177.06 54.37
  Q 202.78 45.59 230.22 47.84
  Q 233.76 48.13 244.46 50.43
  C 262.73 54.36 280.09 62.70 295.14 73.37
  C 302.52 78.60 309.46 83.95 316.05 90.34
  C 321.24 95.36 325.54 99.12 330.23 104.34
  Q 340.46 115.75 342.99 118.99
  Q 345.08 121.65 343.02 125.01
  C 332.58 142.09 317.31 157.37 301.12 169.36
  Q 282.55 183.12 262.05 190.27
  C 248.08 195.14 230.59 198.34 215.58 197.80
  Q 192.89 197.00 173.78 189.44
  C 144.63 177.91 118.18 156.22 99.32 131.20
  Z
  M 335.31 121.89
  Q 325.91 111.47 321.78 107.00
  Q 314.51 99.13 299.11 86.15
  C 294.69 82.41 287.21 77.38 283.49 75.04
  C 262.80 62.06 237.43 53.64 212.76 55.14
  Q 177.31 57.30 148.98 77.78
  Q 129.08 92.17 114.16 109.17
  Q 107.52 116.74 103.16 122.60
  A 0.67 0.66 45.5 0 0 103.16 123.39
  Q 120.93 147.48 145.52 165.05
  Q 164.61 178.70 183.07 184.45
  C 219.49 195.80 259.54 188.47 290.85 167.12
  Q 305.99 156.80 319.78 142.04
  Q 327.67 133.59 335.34 122.42
  A 0.44 0.43 -48.7 0 0 335.31 121.89
  Z"
/>
<path d="
  M 357.25 158.96
  A 0.66 0.66 0.0 0 0 357.70 160.10
  L 375.36 160.10
  A 2.35 2.32 21.3 0 0 377.07 159.36
  L 390.06 145.42
  A 1.38 1.36 -42.0 0 0 390.16 143.65
  Q 389.02 142.13 388.85 141.69
  Q 385.47 133.34 390.93 126.58
  Q 392.02 125.22 393.56 124.59
  Q 403.01 120.72 409.24 126.40
  C 416.29 132.84 413.12 144.81 404.48 147.66
  C 401.68 148.59 397.40 147.35 395.01 150.52
  Q 387.79 160.12 382.12 164.85
  C 378.34 168.01 376.15 167.82 370.39 167.83
  Q 358.16 167.86 353.00 167.55
  Q 350.18 167.39 348.41 168.91
  Q 341.86 174.54 335.13 180.06
  A 4.14 4.12 -73.4 0 1 333.77 180.80
  Q 328.94 182.39 326.98 182.50
  Q 310.14 183.42 307.53 183.80
  A 1.25 1.25 0.0 0 1 306.26 181.95
  L 308.06 178.74
  A 5.38 5.37 -75.2 0 1 312.76 176.00
  Q 323.04 176.04 329.89 173.35
  Q 332.56 172.30 336.21 168.95
  Q 347.39 158.64 360.43 144.44
  Q 362.33 142.37 362.74 141.21
  A 3.73 3.71 54.9 0 0 362.93 140.10
  Q 363.04 129.64 363.06 111.83
  Q 363.06 109.57 365.01 105.55
  A 1.45 1.26 -14.5 0 1 365.25 105.20
  L 383.43 85.71
  A 2.42 2.40 -36.2 0 0 383.85 83.06
  C 382.12 79.32 381.24 75.31 383.18 71.43
  Q 386.29 65.25 392.93 64.15
  C 403.34 62.44 411.39 72.13 406.90 82.06
  Q 403.85 88.81 395.83 89.36
  C 394.25 89.47 392.77 88.88 391.20 88.76
  A 1.10 1.09 -67.1 0 0 390.30 89.13
  L 372.88 108.71
  A 3.82 3.81 -24.2 0 0 371.93 111.20
  Q 371.85 126.06 371.74 138.27
  Q 371.70 142.87 369.36 145.86
  Q 364.09 152.60 357.25 158.96
  Z
  M 400.8044 75.4898
  A 5.59 5.30 -14.4 0 0 394.0719 71.7465
  A 5.59 5.30 -14.4 0 0 389.9756 78.2702
  A 5.59 5.30 -14.4 0 0 396.7081 82.0135
  A 5.59 5.30 -14.4 0 0 400.8044 75.4898
  Z
  M 405.83 135.56
  A 5.35 5.35 0.0 0 0 400.48 130.21
  A 5.35 5.35 0.0 0 0 395.13 135.56
  A 5.35 5.35 0.0 0 0 400.48 140.91
  A 5.35 5.35 0.0 0 0 405.83 135.56
  Z"
/>
<path d="
  M 173.1684 123.6527
  A 45.46 44.79 -181.1 0 1 217.7601 77.9983
  A 45.46 44.79 -181.1 0 1 264.0716 121.9073
  A 45.46 44.79 -181.1 0 1 219.4799 167.5617
  A 45.46 44.79 -181.1 0 1 173.1684 123.6527
  Z
  M 254.14 122.44
  A 35.41 35.41 0.0 0 0 218.73 87.03
  A 35.41 35.41 0.0 0 0 183.32 122.44
  A 35.41 35.41 0.0 0 0 218.73 157.85
  A 35.41 35.41 0.0 0 0 254.14 122.44
  Z"
/>
<circle cx="221.80" cy="107.07" r="11.45"/>
<path d="
  M 292.37 205.03
  C 293.29 202.91 298.53 200.10 300.36 199.23
  A 5.73 5.46 -59.8 0 1 301.98 198.76
  Q 307.09 198.05 310.26 198.08
  Q 332.62 198.29 347.95 198.32
  A 1.07 1.07 0.0 0 0 348.80 197.90
  C 351.45 194.33 353.55 191.96 358.27 191.20
  C 368.77 189.50 376.26 200.69 370.64 209.81
  C 367.35 215.15 360.29 217.08 354.79 214.44
  C 350.96 212.59 349.91 210.12 348.17 206.65
  A 0.96 0.94 -13.1 0 0 347.32 206.13
  L 293.09 206.13
  A 0.79 0.79 0.0 0 1 292.37 205.03
  Z
  M 365.0007 201.3081
  A 5.23 4.74 -23.1 0 0 358.3303 199.0000
  A 5.23 4.74 -23.1 0 0 355.3793 205.4119
  A 5.23 4.74 -23.1 0 0 362.0497 207.7200
  A 5.23 4.74 -23.1 0 0 365.0007 201.3081
  Z"
/>
<path d="
  M 11.33 208.46
  L 12.40 209.73
  A 2.17 2.09 18.6 0 1 12.83 210.56
  Q 14.65 217.26 19.48 220.66
  A 2.07 2.07 0.0 0 1 19.32 224.15
  Q 11.83 228.46 6.71 230.44
  Q 5.48 230.91 4.90 230.83
  A 1.86 1.86 0.0 0 1 3.42 228.34
  C 4.31 225.95 5.73 222.31 6.69 218.53
  Q 7.96 213.52 10.49 208.55
  A 0.51 0.50 38.3 0 1 11.33 208.46
  Z"
/>
<path d="
  M 219.42 215.34
  L 236.75 231.50
  A 1.16 1.16 0.0 0 1 236.81 233.14
  L 220.08 251.08
  A 1.16 1.16 0.0 0 1 218.41 251.11
  L 201.06 233.77
  A 1.16 1.16 0.0 0 1 201.06 232.13
  L 217.81 215.37
  A 1.16 1.16 0.0 0 1 219.42 215.34
  Z
  M 218.99 225.97
  L 212.09 232.82
  A 0.20 0.20 0.0 0 0 212.09 233.10
  L 216.02 237.06
  A 4.10 0.91 45.2 0 0 219.56 239.33
  L 225.45 233.48
  A 4.10 0.91 45.2 0 0 223.20 229.93
  L 219.27 225.97
  A 0.20 0.20 0.0 0 0 218.99 225.97
  Z"
/>
</g>
</svg>
