<?xml version="1.0" encoding="UTF-8" standalone="no"?>
<!DOCTYPE svg PUBLIC "-//W3C//DTD SVG 1.1//EN" "http://www.w3.org/Graphics/SVG/1.1/DTD/svg11.dtd">
<svg xmlns="http://www.w3.org/2000/svg" version="1.1" viewBox="0.00 0.00 678.00 532.00">
<g stroke-width="2.00" fill="none" stroke-linecap="butt">
<path stroke="#dc8439" d="
  M 308.52 482.20
  Q 300.62 474.39 291.14 467.66"
/>
<path stroke="#dc8439" d="
  M 159.54 417.87
  Q 157.48 423.51 155.26 428.95
  C 152.71 435.22 152.88 439.23 156.77 444.64
  Q 162.99 453.29 168.49 459.31"
/>
</g>
<g fill="#da7e39">
<path d="
  M 308.52 482.20
  Q 300.62 474.39 291.14 467.66
  Q 313.77 456.52 331.09 440.35
  Q 357.69 415.49 364.40 379.91
  Q 366.42 369.22 366.41 354.00
  Q 366.40 343.96 366.56 327.97
  A 0.35 0.34 -4.8 0 0 366.15 327.63
  Q 365.94 327.66 365.68 327.93
  Q 357.70 336.20 329.85 363.98
  C 327.66 366.17 325.64 368.33 322.99 369.45
  C 311.91 374.11 306.25 361.94 302.34 354.24
  C 298.17 346.00 291.17 339.13 282.31 337.03
  Q 280.49 336.60 268.64 336.62
  Q 235.26 336.67 234.12 336.65
  Q 227.20 336.53 223.96 337.65
  C 212.14 341.74 206.30 351.13 200.31 361.87
  C 197.06 367.70 193.77 371.11 186.96 370.55
  C 184.52 370.36 182.54 368.96 180.92 367.25
  C 169.23 354.92 155.55 341.70 142.74 327.99
  A 0.31 0.31 0.0 0 0 142.21 328.20
  C 142.39 345.88 141.94 357.41 143.76 372.75
  Q 146.64 397.21 159.54 417.87
  Q 157.48 423.51 155.26 428.95
  C 152.71 435.22 152.88 439.23 156.77 444.64
  Q 162.99 453.29 168.49 459.31
  C 151.99 444.81 138.10 426.84 130.82 405.93
  A 1.97 1.96 84.1 0 0 129.23 404.63
  Q 101.56 400.85 74.14 391.58
  Q 63.95 388.14 54.97 383.76
  Q 45.99 379.40 51.29 370.55
  Q 66.95 344.40 75.10 325.85
  C 87.11 298.53 93.98 269.27 96.25 239.47
  A 1.01 1.00 11.5 0 0 95.56 238.44
  C 82.25 234.00 74.04 222.33 74.72 208.24
  C 75.40 194.33 83.97 182.68 98.25 180.08
  A 0.79 0.79 0.0 0 0 98.79 179.69
  Q 99.00 179.32 98.90 178.84
  Q 98.82 178.44 98.90 177.94
  Q 100.14 169.68 103.40 158.67
  Q 119.39 104.80 164.50 72.00
  C 181.41 59.71 201.64 51.77 222.69 46.15
  C 223.54 45.93 224.56 45.87 225.44 45.79
  A 0.88 0.87 -81.6 0 0 226.17 45.24
  C 230.18 35.02 236.83 27.80 247.93 25.76
  C 262.05 23.16 275.90 31.16 280.20 44.92
  A 1.02 1.01 86.9 0 0 280.96 45.61
  C 328.73 55.31 369.31 84.02 391.78 127.23
  Q 405.36 153.36 408.85 178.89
  A 1.26 1.24 11.7 0 0 409.46 179.80
  C 410.43 180.36 411.84 180.27 412.63 180.55
  C 424.64 184.84 431.67 194.10 433.35 206.44
  Q 434.10 211.93 432.62 217.49
  Q 428.49 233.07 412.09 238.50
  A 1.04 1.04 0.0 0 0 411.38 239.55
  Q 413.13 269.07 421.72 297.55
  A 0.51 0.50 -28.7 0 0 422.53 297.78
  C 425.82 294.98 429.29 291.80 429.38 286.98
  C 429.48 281.35 428.74 274.54 430.17 270.03
  Q 432.30 263.26 436.89 258.32
  Q 448.68 245.65 459.99 233.87
  A 2.97 2.96 67.1 0 0 460.82 231.81
  Q 460.83 172.25 460.81 170.91
  C 460.68 162.50 461.68 158.31 465.96 152.28
  Q 467.00 150.81 470.98 146.11
  Q 483.63 131.16 496.49 116.98
  A 0.51 0.50 -38.3 0 0 496.56 116.39
  C 489.60 103.51 492.50 88.17 504.07 79.35
  C 513.61 72.06 527.96 71.79 537.75 79.23
  C 549.27 87.99 553.14 101.70 547.13 114.82
  C 541.50 127.11 527.24 134.71 513.75 129.40
  A 0.75 0.74 31.0 0 0 512.92 129.60
  L 482.30 164.80
  A 4.66 4.62 -24.8 0 0 481.17 167.83
  Q 481.18 223.53 481.17 235.75
  C 481.17 240.43 480.01 243.14 476.58 246.62
  Q 457.00 266.54 452.02 271.51
  Q 450.38 273.14 449.45 274.98
  A 2.31 2.28 59.3 0 0 449.20 275.98
  Q 449.10 281.71 449.23 286.23
  C 449.42 292.83 448.27 297.80 444.52 302.28
  Q 437.22 311.00 429.32 318.78
  A 0.96 0.96 0.0 0 0 429.14 319.91
  L 443.07 346.84
  A 0.50 0.50 0.0 0 0 443.87 346.96
  L 501.44 287.14
  A 2.43 2.42 67.0 0 0 502.10 285.50
  Q 502.24 260.55 502.13 253.95
  C 501.97 244.81 503.66 239.19 509.55 233.05
  Q 533.58 207.97 543.74 198.47
  A 1.16 1.15 61.0 0 0 544.06 197.33
  C 539.77 181.52 549.26 165.34 565.64 162.56
  C 580.22 160.09 594.68 168.79 598.41 182.77
  C 604.34 204.99 583.98 225.30 561.36 217.34
  C 560.12 216.90 558.41 215.68 557.08 215.03
  A 0.88 0.88 0.0 0 0 556.06 215.19
  L 523.57 247.69
  A 4.18 4.16 67.6 0 0 522.35 250.64
  L 522.35 281.68
  A 0.54 0.54 0.0 0 0 522.89 282.22
  L 582.75 282.22
  A 0.91 0.91 0.0 0 0 583.60 281.63
  C 587.84 270.27 598.12 263.05 610.38 263.40
  C 632.14 264.01 644.50 286.27 634.66 305.23
  C 623.32 327.11 592.15 324.99 583.54 301.81
  A 0.54 0.53 -10.3 0 0 583.04 301.47
  L 517.61 301.47
  A 2.54 2.52 22.1 0 0 515.81 302.22
  Q 482.25 336.56 461.18 357.43
  Q 458.03 360.55 454.35 363.81
  A 1.09 1.09 0.0 0 0 454.20 365.27
  Q 457.96 370.42 459.08 372.19
  C 463.15 378.65 458.82 382.88 453.18 385.16
  Q 416.88 399.86 379.25 404.85
  A 1.52 1.51 7.8 0 0 378.08 405.73
  L 372.99 417.22
  A 0.44 0.44 0.0 0 0 373.39 417.84
  Q 407.96 417.94 425.02 417.81
  Q 427.97 417.79 430.15 417.11
  A 5.96 5.83 -71.5 0 0 432.04 416.14
  Q 433.75 414.84 438.28 410.28
  Q 473.27 375.00 484.01 364.28
  C 487.79 360.52 491.63 359.36 497.42 359.36
  Q 523.76 359.38 539.83 359.48
  A 1.25 1.24 14.7 0 0 540.94 358.84
  Q 548.05 346.11 561.86 343.31
  C 578.29 339.97 595.73 353.31 595.69 370.50
  C 595.65 385.30 585.44 397.53 570.72 399.67
  C 556.84 401.69 544.41 392.90 539.75 379.76
  A 1.30 1.28 -9.5 0 0 538.53 378.90
  L 499.79 378.90
  A 1.42 1.40 29.9 0 0 499.10 379.08
  Q 497.48 379.98 493.87 383.61
  Q 451.17 426.46 449.88 427.82
  C 445.12 432.84 438.75 437.49 431.52 437.56
  Q 410.89 437.76 362.52 437.55
  A 2.11 2.10 -70.5 0 0 360.85 438.35
  Q 339.09 465.76 308.52 482.20
  Z
  M 261.75 54.02
  A 8.27 8.27 0.0 0 0 253.48 45.75
  A 8.27 8.27 0.0 0 0 245.21 54.02
  A 8.27 8.27 0.0 0 0 253.48 62.29
  A 8.27 8.27 0.0 0 0 261.75 54.02
  Z
  M 119.31 179.13
  A 0.67 0.67 0.0 0 0 119.97 179.93
  L 387.94 179.93
  A 0.85 0.85 0.0 0 0 388.77 178.90
  C 381.95 146.33 365.44 116.72 339.70 95.82
  Q 313.03 74.16 279.50 66.66
  A 0.61 0.61 0.0 0 0 278.83 66.97
  Q 271.72 79.92 258.67 82.64
  C 245.37 85.41 233.41 79.35 227.62 67.06
  A 0.69 0.67 -18.8 0 0 226.84 66.69
  Q 179.39 78.39 149.50 114.26
  Q 137.73 128.39 130.31 144.77
  Q 122.82 161.29 119.31 179.13
  Z
  M 528.5781 97.8355
  A 8.66 8.49 -33.3 0 0 516.6788 95.4940
  A 8.66 8.49 -33.3 0 0 514.1019 107.3445
  A 8.66 8.49 -33.3 0 0 526.0012 109.6860
  A 8.66 8.49 -33.3 0 0 528.5781 97.8355
  Z
  M 579.50 190.48
  A 8.43 8.43 0.0 0 0 571.07 182.05
  A 8.43 8.43 0.0 0 0 562.64 190.48
  A 8.43 8.43 0.0 0 0 571.07 198.91
  A 8.43 8.43 0.0 0 0 579.50 190.48
  Z
  M 412.88 209.49
  A 8.76 8.76 0.0 0 0 404.12 200.73
  L 103.06 200.73
  A 8.76 8.76 0.0 0 0 94.30 209.49
  L 94.30 209.91
  A 8.76 8.76 0.0 0 0 103.06 218.67
  L 404.12 218.67
  A 8.76 8.76 0.0 0 0 412.88 209.91
  L 412.88 209.49
  Z
  M 122.05 347.61
  L 106.91 347.38
  A 1.90 1.89 11.2 0 0 105.12 348.57
  Q 102.10 356.16 101.03 359.36
  C 99.85 362.88 97.85 365.88 94.02 363.97
  C 91.65 362.79 89.26 360.40 90.28 357.53
  Q 93.04 349.74 97.16 340.64
  Q 99.09 336.37 103.94 336.42
  Q 110.44 336.49 122.05 336.51
  A 0.69 0.69 0.0 0 0 122.74 335.82
  L 122.74 239.18
  A 0.25 0.24 90.0 0 0 122.50 238.93
  L 117.15 238.93
  A 0.23 0.23 0.0 0 0 116.92 239.14
  Q 114.27 268.85 106.55 297.34
  C 99.60 323.04 88.23 346.34 74.68 368.45
  A 0.51 0.50 -63.4 0 0 74.92 369.18
  Q 98.55 378.75 124.25 382.89
  A 0.58 0.58 0.0 0 0 124.92 382.22
  C 123.76 375.08 122.71 366.09 122.78 358.40
  Q 122.85 349.41 122.77 348.29
  A 0.73 0.73 0.0 0 0 122.05 347.61
  Z
  M 142.19 239.63
  Q 142.27 282.74 142.17 298.28
  Q 142.16 300.14 143.78 301.75
  Q 167.93 325.74 186.38 344.80
  A 0.56 0.56 0.0 0 0 187.27 344.68
  C 196.70 327.61 211.08 316.16 231.25 315.66
  Q 238.30 315.48 273.11 315.54
  Q 282.99 315.55 288.25 317.02
  C 303.52 321.29 312.92 331.19 320.09 344.91
  A 0.44 0.44 0.0 0 0 320.79 345.01
  Q 346.34 319.26 362.80 302.64
  C 363.98 301.45 365.86 299.97 365.86 298.23
  Q 365.81 256.25 365.81 239.68
  A 0.57 0.57 0.0 0 0 365.24 239.12
  L 142.71 239.12
  A 0.52 0.51 -0.0 0 0 142.19 239.63
  Z
  M 384.39 383.19
  Q 384.66 383.26 385.21 383.16
  Q 410.56 378.41 433.73 370.16
  A 0.46 0.46 0.0 0 0 433.95 369.47
  C 407.67 331.52 393.97 285.30 391.38 239.19
  A 0.15 0.15 0.0 0 0 391.23 239.05
  L 386.30 239.05
  A 0.20 0.20 0.0 0 0 386.10 239.25
  Q 386.49 318.26 386.12 366.57
  Q 386.05 375.28 384.04 382.60
  A 0.48 0.48 0.0 0 0 384.39 383.19
  Z
  M 602.3957 286.7560
  A 8.72 8.55 -144.9 0 0 604.6137 298.7652
  A 8.72 8.55 -144.9 0 0 616.6643 296.7840
  A 8.72 8.55 -144.9 0 0 614.4463 284.7748
  A 8.72 8.55 -144.9 0 0 602.3957 286.7560
  Z
  M 575.08 371.22
  A 8.40 8.40 0.0 0 0 566.68 362.82
  A 8.40 8.40 0.0 0 0 558.28 371.22
  A 8.40 8.40 0.0 0 0 566.68 379.62
  A 8.40 8.40 0.0 0 0 575.08 371.22
  Z"
/>
<path d="
  M 205.52 275.08
  Q 196.87 275.00 174.98 275.21
  C 160.10 275.35 159.75 254.51 173.45 254.52
  Q 188.67 254.53 205.77 254.46
  Q 215.85 254.42 217.36 254.94
  C 221.92 256.49 225.97 260.95 226.01 266.07
  Q 226.07 275.21 226.18 290.32
  Q 226.20 294.95 225.17 296.87
  C 222.22 302.26 215.72 303.54 210.68 300.36
  Q 206.41 297.66 206.37 291.66
  Q 206.32 280.67 206.18 275.74
  A 0.67 0.67 0.0 0 0 205.52 275.08
  Z"
/>
<path d="
  M 302.21 275.77
  Q 302.09 280.68 302.07 291.63
  Q 302.05 297.60 297.81 300.30
  C 292.80 303.48 286.32 302.23 283.37 296.87
  Q 282.33 294.96 282.34 290.35
  Q 282.40 275.31 282.44 266.20
  C 282.46 261.10 286.48 256.65 291.02 255.09
  Q 292.52 254.57 302.56 254.58
  Q 319.58 254.60 334.74 254.54
  C 348.38 254.49 348.10 275.24 333.28 275.15
  Q 311.48 275.01 302.87 275.11
  A 0.67 0.67 0.0 0 0 302.21 275.77
  Z"
/>
<rect x="227.07" y="352.68" width="53.72" height="20.04" rx="9.64"/>
<ellipse cx="0.00" cy="0.00" transform="translate(113.79,367.42) rotate(-95.3)" rx="4.71" ry="4.30"/>
</g>
<path fill="#dd8a39" d="
  M 291.14 467.66
  Q 300.62 474.39 308.52 482.20
  C 293.73 490.93 277.65 497.11 261.52 502.48
  Q 254.50 504.82 246.65 502.31
  Q 211.65 491.14 182.00 470.26
  Q 175.69 465.81 168.49 459.31
  Q 162.99 453.29 156.77 444.64
  C 152.88 439.23 152.71 435.22 155.26 428.95
  Q 157.48 423.51 159.54 417.87
  Q 168.97 432.57 182.06 443.92
  Q 190.27 451.03 198.47 456.62
  A 0.50 0.49 -50.9 0 0 199.10 456.55
  L 217.56 437.37
  A 1.06 1.06 0.0 0 0 217.57 435.91
  L 203.08 420.37
  A 0.61 0.60 45.3 0 0 202.20 420.36
  L 197.15 425.61
  A 0.85 0.84 45.3 0 0 197.15 426.78
  L 205.83 435.80
  A 1.56 1.56 0.0 0 1 206.24 436.65
  C 206.78 440.88 203.72 444.76 199.37 443.65
  Q 197.63 443.21 195.29 440.73
  Q 190.52 435.70 186.09 431.00
  Q 183.37 428.12 182.44 426.24
  A 2.99 2.99 0.0 0 1 182.97 422.83
  Q 189.10 416.49 196.77 408.51
  C 199.73 405.43 204.14 403.24 207.51 406.98
  Q 224.13 425.44 243.98 445.66
  A 0.55 0.55 0.0 0 0 244.77 445.66
  L 262.79 426.93
  A 1.03 1.03 0.0 0 0 262.76 425.47
  L 255.37 418.36
  A 0.52 0.52 0.0 0 0 254.64 418.36
  Q 247.74 425.29 246.38 426.63
  C 244.53 428.46 242.24 430.00 239.83 428.38
  Q 236.71 426.30 235.28 423.16
  A 2.63 2.62 54.9 0 1 235.78 420.25
  Q 239.86 416.07 249.61 406.36
  C 252.59 403.40 255.57 402.27 258.74 405.50
  Q 264.48 411.33 276.54 423.44
  C 280.00 426.92 277.55 429.82 274.59 432.77
  Q 248.85 458.42 234.22 472.73
  A 0.98 0.87 3.6 0 1 234.04 472.87
  L 232.15 474.03
  A 0.60 0.60 0.0 0 0 232.22 475.09
  Q 242.19 479.51 251.52 482.72
  Q 252.58 483.09 255.48 483.64
  A 0.72 0.68 39.7 0 0 255.81 483.62
  L 262.23 481.52
  A 0.76 0.76 0.0 0 0 262.52 480.25
  L 253.47 471.53
  A 1.80 1.78 14.5 0 1 252.97 470.69
  Q 251.63 465.69 255.54 462.56
  Q 257.27 461.17 259.42 461.25
  Q 260.82 461.30 262.85 463.30
  Q 268.07 468.45 275.09 474.48
  A 0.99 0.98 52.9 0 0 276.14 474.63
  L 291.14 467.66
  Z
  M 227.15 445.31
  A 0.51 0.51 0.0 0 0 226.44 445.31
  L 209.08 462.66
  A 0.51 0.51 0.0 0 0 209.21 463.48
  L 220.56 469.20
  A 0.51 0.51 0.0 0 0 221.15 469.11
  L 235.84 454.41
  A 0.51 0.51 0.0 0 0 235.84 453.68
  L 227.15 445.31
  Z"
/>
</svg>
