<?xml version="1.0" encoding="UTF-8" standalone="no"?>
<!DOCTYPE svg PUBLIC "-//W3C//DTD SVG 1.1//EN" "http://www.w3.org/Graphics/SVG/1.1/DTD/svg11.dtd">
<svg xmlns="http://www.w3.org/2000/svg" version="1.1" viewBox="0.00 0.00 921.00 741.00">
<g fill="#62696b">
<ellipse cx="0.00" cy="0.00" transform="translate(47.70,38.74) rotate(-84.3)" rx="1.17" ry="0.84"/>
<path d="
  M 620.53 579.00
  Q 619.05 577.41 617.90 576.84
  Q 599.73 567.87 583.89 553.38
  Q 569.70 540.41 562.67 523.56
  Q 557.90 512.12 557.20 500.76
  Q 556.39 487.58 559.48 477.44
  C 565.74 456.89 583.41 440.56 603.25 432.53
  Q 613.82 428.25 624.72 425.32
  Q 638.45 421.63 644.18 419.76
  Q 661.27 414.19 677.81 407.02
  Q 706.62 394.52 732.46 373.69
  Q 748.63 360.66 762.50 342.52
  Q 772.95 328.85 779.43 313.19
  Q 780.74 310.01 781.55 306.54
  A 0.75 0.74 6.8 0 0 780.83 305.63
  Q 761.41 305.49 747.50 305.46
  Q 661.85 305.26 619.00 305.64
  Q 617.14 305.65 615.83 307.39
  C 614.37 309.33 613.12 309.60 611.00 309.65
  Q 608.00 309.71 582.98 309.49
  A 0.55 0.55 0.0 0 0 582.42 310.04
  Q 582.41 336.46 582.46 345.47
  C 582.48 349.03 575.54 355.75 572.76 358.42
  A 0.76 0.75 -22.0 0 1 571.48 357.88
  L 571.48 292.27
  A 1.10 1.09 -0.0 0 1 572.58 291.18
  L 580.89 291.18
  A 0.84 0.83 -1.4 0 1 581.73 291.97
  L 582.17 299.05
  A 0.84 0.84 0.0 0 0 583.01 299.84
  L 605.09 299.84
  A 1.34 1.34 0.0 0 0 606.43 298.50
  L 606.43 292.08
  A 0.72 0.71 89.6 0 1 607.13 291.36
  Q 640.83 290.86 663.50 290.88
  Q 712.94 290.93 783.24 290.79
  C 787.39 290.78 790.91 290.96 797.00 291.06
  A 0.76 0.76 0.0 0 1 797.75 291.83
  Q 797.70 294.80 797.03 298.06
  Q 790.69 329.06 770.01 354.78
  C 747.99 382.17 720.57 401.88 688.38 417.13
  Q 682.79 419.77 666.10 426.05
  Q 659.34 428.60 639.87 433.70
  C 636.75 434.51 633.85 435.56 629.94 436.48
  Q 617.94 439.29 604.24 445.76
  Q 592.70 451.21 583.39 460.67
  C 566.75 477.57 565.27 502.08 575.83 522.70
  C 581.30 533.39 589.83 543.21 600.23 551.12
  C 613.52 561.25 627.59 568.70 643.13 575.58
  Q 645.35 576.56 646.63 578.94
  A 0.60 0.58 -60.0 0 1 646.70 579.22
  L 646.70 647.97
  A 1.17 1.16 -0.0 0 1 645.53 649.13
  L 512.38 649.13
  A 3.20 3.18 -25.3 0 1 510.36 648.41
  L 497.42 637.88
  A 0.70 0.70 0.0 0 1 497.86 636.64
  L 631.61 636.64
  A 0.97 0.97 0.0 0 0 632.58 635.67
  L 632.40 592.37
  A 1.64 1.63 5.6 0 0 631.08 590.77
  Q 630.34 590.63 627.62 590.63
  Q 612.80 590.62 518.00 590.66
  Q 512.25 590.66 509.39 590.13
  A 5.74 5.54 -25.2 0 1 507.89 589.62
  Q 495.81 583.49 488.49 581.77
  C 480.30 579.85 475.56 578.45 469.53 578.06
  C 463.45 577.66 457.90 576.05 451.43 575.78
  Q 427.12 574.75 402.62 575.87
  C 398.95 576.04 394.22 577.44 390.00 577.75
  Q 374.41 578.89 357.22 585.78
  Q 351.34 588.15 348.87 589.88
  C 347.49 590.85 343.12 590.67 340.81 590.67
  Q 281.29 590.51 224.34 590.76
  A 0.70 0.69 -81.8 0 0 223.69 591.25
  Q 223.11 593.06 223.12 594.50
  Q 223.29 614.46 223.11 635.35
  A 1.15 1.15 0.0 0 0 224.26 636.51
  Q 281.83 636.74 356.47 636.60
  Q 357.61 636.60 358.76 637.02
  A 0.52 0.52 0.0 0 1 358.93 637.90
  Q 350.37 645.40 347.24 648.22
  C 346.10 649.24 343.20 649.09 341.50 649.10
  Q 267.10 649.23 210.06 649.09
  A 1.03 1.02 0.3 0 1 209.04 648.07
  L 209.04 579.81
  A 1.65 1.65 0.0 0 1 210.16 578.25
  C 225.90 572.98 240.44 564.74 253.77 554.52
  Q 268.98 542.87 278.13 527.62
  Q 290.81 506.47 287.08 481.96
  C 282.84 454.17 255.77 437.55 230.73 431.02
  Q 220.29 428.30 206.73 425.04
  C 200.36 423.51 194.91 421.66 187.77 419.46
  Q 155.96 409.65 128.65 391.85
  Q 93.61 369.01 72.77 334.29
  Q 66.25 323.42 61.05 307.07
  C 59.32 301.62 58.80 297.24 57.65 291.77
  A 0.61 0.61 0.0 0 1 58.25 291.03
  Q 61.76 291.04 64.53 291.01
  Q 90.85 290.75 242.24 290.93
  C 245.46 290.93 249.63 290.62 252.45 292.79
  Q 253.47 293.58 261.55 301.22
  Q 263.51 303.09 264.50 304.66
  A 0.78 0.78 0.0 0 1 263.83 305.85
  L 76.47 305.85
  A 1.29 1.29 0.0 0 0 75.20 307.35
  C 76.33 313.93 79.81 319.51 83.82 326.40
  C 94.55 344.83 110.11 361.15 127.04 373.71
  C 149.72 390.54 177.21 402.80 204.11 410.15
  C 223.04 415.32 233.58 417.85 248.57 423.42
  C 266.41 430.04 283.01 442.23 292.27 459.01
  Q 302.47 477.52 300.35 498.86
  C 299.79 504.51 298.92 510.45 297.10 516.10
  Q 289.75 538.80 271.47 555.51
  Q 258.86 567.03 241.38 577.12
  Q 239.78 578.04 239.11 579.33
  A 0.46 0.46 0.0 0 0 239.56 580.00
  Q 242.50 579.68 244.50 579.68
  Q 313.30 579.76 334.50 579.54
  Q 336.77 579.52 344.03 578.71
  A 14.43 14.33 29.2 0 0 348.41 577.49
  Q 362.40 571.05 377.42 568.91
  Q 382.61 568.17 390.08 566.85
  Q 395.99 565.81 402.88 565.64
  Q 421.46 565.16 425.86 565.03
  C 435.05 564.77 444.08 565.62 453.41 565.70
  C 456.56 565.72 460.79 566.28 464.74 566.57
  Q 467.54 566.77 469.22 567.20
  C 474.78 568.62 481.22 568.59 487.20 569.94
  Q 497.71 572.30 510.84 577.67
  Q 512.61 578.39 518.00 578.66
  Q 525.72 579.05 537.25 579.00
  Q 545.84 578.95 620.41 579.28
  A 0.17 0.16 68.8 0 0 620.53 579.00
  Z"
/>
<path d="
  M 274.64 291.50
  A 0.26 0.25 -1.2 0 1 274.89 291.25
  Q 301.61 290.88 327.25 291.73
  Q 329.05 291.79 330.92 291.16
  A 0.68 0.68 0.0 0 1 331.80 291.94
  Q 331.08 295.33 331.55 298.47
  A 0.62 0.62 0.0 0 1 330.94 299.18
  L 288.01 299.18
  A 1.23 1.22 -0.0 0 0 286.78 300.40
  L 286.78 408.54
  A 0.70 0.70 0.0 0 1 285.52 408.96
  L 275.50 395.66
  A 4.17 4.12 21.9 0 1 274.73 393.88
  Q 274.23 390.84 274.27 386.50
  Q 274.39 372.80 274.29 302.51
  C 274.29 299.73 274.64 295.21 274.64 291.50
  Z"
/>
<path d="
  M 98.28 313.18
  Q 100.39 312.77 103.75 313.00
  C 110.00 313.42 119.56 314.15 128.50 314.17
  Q 150.10 314.24 259.21 314.26
  A 0.75 0.75 0.0 0 1 259.96 315.01
  L 259.96 330.47
  A 1.61 1.61 0.0 0 1 258.52 332.07
  Q 256.64 332.27 251.50 332.06
  C 242.11 331.67 231.82 330.69 221.15 330.69
  Q 208.35 330.69 196.75 329.73
  Q 188.65 329.06 182.26 328.66
  Q 180.76 328.56 178.19 328.13
  C 174.03 327.44 170.57 327.54 164.46 327.26
  C 157.37 326.94 148.87 325.00 142.35 324.46
  C 135.52 323.90 129.79 322.21 122.93 321.32
  C 114.55 320.25 105.91 317.42 98.17 314.31
  A 0.59 0.59 0.0 0 1 98.28 313.18
  Z"
/>
<path d="
  M 626.59 345.67
  L 624.90 345.61
  A 1.25 1.24 23.4 0 1 624.06 343.49
  Q 635.30 332.15 638.29 329.28
  Q 642.15 325.58 645.17 325.07
  Q 646.65 324.82 653.29 324.76
  Q 664.62 324.65 697.75 324.95
  C 700.74 324.98 703.98 321.74 707.19 325.04
  C 711.24 329.21 709.21 334.26 703.39 333.93
  Q 697.38 333.60 696.50 333.60
  Q 668.87 333.67 646.66 333.55
  A 1.05 1.00 32.3 0 0 646.26 333.63
  Q 644.96 334.19 643.40 335.64
  Q 637.99 340.67 632.28 346.64
  C 630.54 348.45 628.30 349.01 627.37 346.26
  A 0.87 0.87 0.0 0 0 626.59 345.67
  Z"
/>
<ellipse cx="0.00" cy="0.00" transform="translate(739.13,329.85) rotate(-8.9)" rx="4.86" ry="4.51"/>
<rect x="-3.79" y="-4.24" transform="translate(605.71,334.72) rotate(41.7)" width="7.58" height="8.48" rx="3.17"/>
<circle cx="156.16" cy="348.76" r="4.64"/>
<path d="
  M 546.52 469.86
  A 0.33 0.32 -33.8 0 1 545.90 469.74
  Q 545.50 457.96 549.79 446.61
  C 550.49 444.74 551.79 442.86 552.78 441.01
  Q 558.93 429.55 568.42 421.94
  C 571.78 419.24 577.93 414.30 583.54 411.18
  Q 596.55 403.97 605.44 400.69
  Q 615.68 396.91 623.39 394.17
  Q 627.56 392.68 630.06 390.06
  Q 652.08 367.00 664.23 354.72
  Q 665.71 353.23 668.50 353.21
  Q 692.39 353.02 716.54 353.23
  A 0.27 0.27 0.0 0 1 716.73 353.69
  Q 713.71 356.70 712.63 360.11
  A 1.18 1.18 0.0 0 1 711.50 360.94
  L 670.60 360.94
  A 3.00 2.98 22.7 0 0 668.51 361.79
  C 666.38 363.88 664.27 366.55 662.28 368.52
  Q 649.33 381.34 637.49 394.23
  Q 635.59 396.29 631.78 398.88
  A 6.05 5.91 -71.0 0 1 630.37 399.59
  Q 612.72 405.77 603.75 409.52
  Q 586.94 416.56 572.51 428.75
  Q 561.81 437.79 555.38 448.76
  Q 553.50 451.96 552.79 453.77
  C 551.73 456.47 550.79 457.84 549.89 460.74
  Q 548.27 465.99 546.52 469.86
  Z"
/>
<path d="
  M 551.11 407.50
  Q 551.21 406.73 552.02 405.51
  Q 554.05 402.46 560.73 395.48
  Q 575.03 380.56 590.79 367.05
  Q 593.09 365.07 595.68 363.50
  A 1.16 1.09 27.4 0 1 596.28 363.33
  L 623.35 363.02
  A 1.48 1.47 17.7 0 1 624.56 365.36
  L 621.71 369.27
  A 4.53 4.53 0.0 0 1 617.88 371.13
  Q 617.68 371.12 599.79 371.52
  C 598.15 371.56 596.33 372.71 595.04 373.97
  Q 576.90 391.76 555.78 406.02
  Q 554.16 407.12 551.92 408.10
  A 0.58 0.58 0.0 0 1 551.11 407.50
  Z"
/>
<path d="
  M 392.13 430.73
  Q 395.60 433.73 398.71 437.37
  Q 414.88 456.22 427.00 471.37
  A 0.57 0.57 0.0 0 0 427.75 471.50
  Q 429.08 470.65 430.25 469.25
  Q 449.80 445.64 456.50 438.25
  Q 459.67 434.75 463.35 429.82
  A 0.77 0.77 0.0 0 1 464.74 430.27
  Q 464.83 434.45 464.90 440.33
  Q 464.93 442.61 463.93 443.67
  Q 460.69 447.11 458.80 449.30
  Q 453.69 455.23 428.91 484.34
  A 1.52 1.51 -44.4 0 1 426.58 484.32
  Q 416.44 472.02 409.14 463.60
  C 403.48 457.07 399.02 450.73 393.17 444.59
  C 391.59 442.93 390.99 441.35 391.15 438.97
  Q 391.45 434.33 391.42 431.06
  A 0.43 0.43 0.0 0 1 392.13 430.73
  Z"
/>
<path d="
  M 435.07 510.19
  Q 458.17 533.11 463.86 539.62
  Q 464.58 540.44 465.34 542.30
  A 1.53 1.41 39.0 0 1 465.44 542.97
  L 464.93 550.50
  A 0.88 0.88 0.0 0 1 463.71 551.25
  Q 462.59 550.79 461.40 549.59
  Q 446.20 534.47 429.04 515.98
  A 0.51 0.51 0.0 0 0 428.30 515.98
  Q 412.81 532.24 395.82 548.82
  Q 394.12 550.47 392.53 551.46
  A 0.91 0.91 0.0 0 1 391.14 550.65
  Q 391.23 548.67 391.25 543.04
  Q 391.25 541.34 392.81 539.81
  Q 403.35 529.47 415.61 516.12
  Q 417.14 514.45 422.43 509.91
  A 0.95 0.95 0.0 0 0 422.49 508.51
  L 404.12 490.14
  A 2.40 2.39 44.7 0 1 404.10 486.77
  L 407.24 483.57
  A 1.71 1.70 -45.1 0 1 409.66 483.56
  L 428.31 502.21
  A 1.03 1.03 0.0 0 0 429.78 502.20
  L 449.32 482.31
  A 0.97 0.96 44.8 0 1 450.69 482.31
  L 454.86 486.48
  A 1.07 1.06 34.1 0 1 455.09 487.65
  Q 454.15 489.96 451.96 492.21
  Q 445.98 498.36 435.07 509.43
  A 0.54 0.54 0.0 0 0 435.07 510.19
  Z"
/>
<circle cx="428.12" cy="539.56" r="5.34"/>
<circle cx="428.27" cy="602.00" r="4.29"/>
<path d="
  M 435.03 625.57
  A 0.23 0.22 -42.7 0 0 435.01 625.92
  L 455.89 644.78
  A 1.04 1.04 0.0 0 1 455.75 646.42
  L 449.79 650.26
  A 0.51 0.50 -35.2 0 1 449.12 650.15
  C 448.68 649.59 448.16 648.73 447.66 648.32
  Q 438.19 640.66 428.91 632.66
  A 1.37 1.37 0.0 0 0 427.10 632.67
  L 408.66 649.02
  A 2.35 2.34 -46.1 0 1 405.62 649.09
  L 401.46 645.71
  A 1.26 1.25 -46.2 0 1 401.42 643.80
  L 420.72 626.69
  A 0.85 0.85 0.0 0 0 420.75 625.45
  L 406.91 611.86
  A 0.71 0.71 0.0 0 0 405.95 611.82
  C 405.37 612.30 404.87 613.32 404.18 613.96
  Q 397.72 619.97 384.22 631.76
  A 1.05 1.05 0.0 0 1 382.82 631.75
  L 367.10 617.54
  A 1.10 1.09 43.4 0 1 367.05 615.96
  L 371.51 611.42
  A 1.19 1.19 0.0 0 1 373.19 611.40
  L 382.18 620.23
  A 1.88 1.87 -44.4 0 0 384.79 620.25
  Q 398.28 607.47 404.37 602.38
  C 406.39 600.70 407.94 601.03 409.81 602.87
  Q 413.17 606.17 428.04 619.75
  A 0.81 0.81 0.0 0 0 429.11 619.76
  L 449.37 601.78
  A 2.13 2.13 0.0 0 1 452.36 601.96
  Q 455.32 605.27 455.68 605.58
  Q 463.95 612.71 472.25 620.44
  A 0.81 0.81 0.0 0 0 473.37 620.42
  L 481.79 612.01
  A 1.83 1.83 0.0 0 1 484.37 611.99
  L 488.80 616.34
  A 1.38 1.38 0.0 0 1 488.52 618.52
  C 483.01 621.73 479.82 625.61 473.37 631.64
  A 1.15 1.15 0.0 0 1 471.80 631.65
  Q 465.66 626.00 455.34 616.67
  Q 453.60 615.09 451.03 612.14
  A 0.67 0.66 46.4 0 0 450.05 612.11
  Q 442.91 619.45 435.03 625.57
  Z"
/>
</g>
<g fill="#cd5f36">
<path d="
  M 330.95 275.72
  L 320.52 276.37
  A 3.10 3.09 67.6 0 1 318.01 275.32
  C 303.03 258.19 292.97 236.99 288.06 214.75
  C 286.18 206.21 285.17 195.08 284.17 187.50
  Q 283.96 185.90 284.13 178.38
  C 284.28 171.51 285.92 162.53 286.22 157.51
  Q 286.40 154.42 287.32 150.10
  Q 296.39 107.39 326.49 77.22
  C 346.23 57.43 370.48 45.52 397.48 38.63
  Q 405.29 36.64 413.88 36.02
  Q 426.09 35.15 430.54 35.05
  Q 432.14 35.01 443.72 36.04
  Q 450.62 36.66 456.77 38.00
  Q 496.24 46.61 525.28 72.29
  Q 564.58 107.05 572.75 159.19
  C 574.44 169.95 574.47 182.74 574.05 191.76
  Q 573.86 195.75 571.91 207.13
  C 567.63 232.11 556.97 254.91 541.03 275.01
  A 2.89 2.86 18.9 0 1 538.77 276.10
  L 528.20 276.10
  A 0.53 0.53 0.0 0 1 527.79 275.23
  C 544.67 255.41 556.20 232.75 561.27 207.33
  C 562.34 201.97 562.53 195.44 563.92 189.94
  C 564.79 186.47 564.61 178.33 563.55 173.73
  C 562.15 167.71 562.01 159.69 560.47 152.53
  Q 554.29 124.02 537.29 101.06
  Q 529.48 90.52 522.43 83.83
  Q 515.69 77.45 504.46 69.53
  C 478.91 51.50 446.40 43.46 415.60 46.60
  Q 404.99 47.69 391.09 51.38
  Q 378.73 54.67 367.85 60.38
  Q 351.23 69.09 339.77 79.25
  Q 314.59 101.56 302.58 134.26
  Q 300.24 140.62 299.20 145.74
  C 298.04 151.44 296.61 156.26 296.10 161.34
  C 294.27 179.55 294.49 197.68 298.89 214.99
  Q 306.59 245.31 327.25 270.53
  Q 330.02 273.92 331.13 275.33
  A 0.24 0.24 0.0 0 1 330.95 275.72
  Z"
/>
<path d="
  M 433.62 85.55
  A 0.26 0.26 0.0 0 0 433.23 85.78
  L 433.23 170.36
  A 0.38 0.38 0.0 0 0 433.91 170.59
  Q 435.77 168.19 437.33 166.59
  Q 464.40 139.06 492.38 111.35
  A 1.27 1.27 0.0 0 0 492.05 109.31
  L 475.83 101.25
  A 0.54 0.54 0.0 0 1 476.07 100.23
  L 510.83 100.23
  A 0.95 0.95 0.0 0 1 511.78 101.22
  L 510.39 137.56
  A 0.56 0.56 0.0 0 1 509.30 137.70
  Q 506.17 127.36 501.81 118.41
  A 1.03 1.03 0.0 0 0 500.15 118.14
  L 442.52 175.77
  A 0.43 0.43 0.0 0 0 442.82 176.50
  L 523.77 176.50
  A 0.59 0.59 0.0 0 0 524.32 175.68
  L 516.46 156.65
  A 0.89 0.89 0.0 0 1 517.91 155.67
  Q 529.33 166.82 543.83 179.41
  Q 545.12 180.53 545.84 181.91
  A 0.62 0.62 0.0 0 1 545.72 182.64
  C 534.47 193.34 525.89 201.05 517.77 209.25
  Q 517.36 209.67 516.95 209.54
  A 0.70 0.66 19.9 0 1 516.50 208.64
  Q 520.67 198.49 524.60 188.15
  A 0.67 0.66 -79.6 0 0 523.98 187.25
  L 442.39 187.25
  A 0.59 0.58 -22.5 0 0 441.97 188.25
  L 499.26 245.44
  A 0.85 0.85 0.0 0 0 500.65 245.17
  C 501.72 242.62 504.11 235.83 506.16 231.26
  Q 507.22 228.89 508.16 225.46
  Q 508.46 224.36 508.99 223.96
  A 0.65 0.65 0.0 0 1 510.03 224.48
  Q 510.24 246.47 511.92 264.59
  A 0.81 0.80 -88.6 0 1 511.01 265.46
  Q 505.21 264.64 497.24 264.33
  Q 490.49 264.07 474.68 263.98
  A 0.60 0.60 0.0 0 1 474.45 262.83
  L 494.12 254.70
  A 0.30 0.30 0.0 0 0 494.21 254.21
  Q 467.63 228.66 437.81 198.69
  Q 435.87 196.74 433.89 195.62
  A 0.46 0.46 0.0 0 0 433.20 196.02
  L 433.20 275.25
  A 0.74 0.74 0.0 0 0 434.26 275.92
  Q 444.48 271.01 455.04 267.51
  A 0.61 0.61 0.0 0 1 455.67 268.52
  L 429.33 295.33
  A 0.87 0.87 0.0 0 1 428.08 295.32
  Q 419.96 286.81 401.72 268.28
  Q 401.08 267.64 400.68 266.64
  A 0.32 0.32 0.0 0 1 401.10 266.22
  L 422.97 275.07
  A 0.27 0.27 0.0 0 0 423.34 274.80
  Q 422.97 266.60 423.00 257.50
  Q 423.10 233.34 423.09 202.76
  Q 423.09 201.74 423.37 196.85
  A 0.78 0.78 0.0 0 0 422.04 196.25
  L 364.69 253.61
  A 0.95 0.95 0.0 0 0 365.01 255.17
  L 384.30 262.98
  A 0.52 0.52 0.0 0 1 384.11 263.99
  Q 365.64 264.18 346.21 265.99
  A 1.26 1.25 2.5 0 1 344.86 264.52
  Q 345.73 259.83 345.54 252.23
  C 345.44 247.87 345.88 243.23 346.55 238.57
  C 347.19 234.16 346.98 229.05 347.60 224.23
  A 0.55 0.55 0.0 0 1 348.69 224.20
  Q 350.79 235.73 356.37 245.81
  A 0.82 0.81 -36.8 0 0 357.66 245.99
  L 415.27 188.38
  A 0.66 0.66 0.0 0 0 414.80 187.26
  L 334.11 187.26
  A 0.83 0.82 -7.3 0 0 333.31 188.29
  Q 334.93 194.60 338.56 202.74
  C 339.51 204.88 340.61 206.47 340.97 208.71
  A 0.51 0.51 0.0 0 1 340.13 209.17
  L 310.85 182.71
  A 0.68 0.68 0.0 0 1 310.84 181.71
  L 339.48 154.72
  A 0.66 0.66 0.0 0 1 340.55 155.45
  L 332.40 175.61
  A 0.64 0.63 10.9 0 0 332.99 176.48
  L 415.83 176.48
  A 0.38 0.38 0.0 0 0 416.10 175.83
  L 357.43 118.19
  A 0.51 0.51 0.0 0 0 356.64 118.29
  C 355.70 119.83 354.78 121.02 354.17 122.58
  Q 350.82 131.11 348.44 138.15
  Q 348.03 139.35 346.99 139.98
  A 0.31 0.31 0.0 0 1 346.52 139.66
  Q 347.33 134.51 346.37 129.71
  Q 345.54 125.55 345.59 122.28
  Q 345.69 114.04 344.94 100.98
  A 0.69 0.69 0.0 0 1 345.63 100.25
  L 385.24 100.25
  A 0.28 0.28 0.0 0 1 385.36 100.79
  L 364.85 110.27
  A 0.57 0.57 0.0 0 0 364.69 111.20
  L 422.34 167.85
  A 0.45 0.45 0.0 0 0 423.10 167.53
  L 423.10 86.51
  A 0.35 0.35 0.0 0 0 422.61 86.19
  Q 415.97 89.13 401.88 96.13
  Q 401.28 96.43 400.77 96.44
  A 0.38 0.38 0.0 0 1 400.44 95.85
  Q 402.50 92.62 405.31 89.80
  Q 416.53 78.54 427.93 66.78
  A 0.93 0.93 0.0 0 1 429.26 66.77
  L 457.33 94.84
  A 0.59 0.58 -12.3 0 1 456.71 95.80
  Q 444.85 91.38 433.62 85.55
  Z"
/>
<path d="
  M 696.89 157.31
  A 0.87 0.86 25.6 0 0 695.71 157.72
  Q 693.61 162.35 690.18 165.68
  Q 676.23 179.24 666.78 188.78
  C 665.55 190.03 665.02 191.65 665.02 193.59
  Q 665.06 205.46 665.12 212.12
  Q 665.15 216.19 661.86 219.39
  Q 655.97 225.13 653.19 228.41
  Q 652.14 229.64 652.31 231.58
  A 0.75 0.75 0.0 0 0 652.79 232.22
  Q 653.42 232.46 663.50 232.67
  Q 666.42 232.73 667.46 232.15
  A 4.89 4.38 6.5 0 0 668.32 231.54
  Q 670.87 229.19 679.87 219.88
  C 683.21 216.42 686.38 213.14 691.26 213.07
  Q 701.87 212.91 717.27 213.02
  A 1.86 1.84 19.1 0 0 718.75 212.31
  C 720.45 210.14 722.79 206.87 724.98 205.41
  Q 733.29 199.88 742.00 206.51
  Q 746.99 210.31 747.08 216.74
  C 747.12 220.25 747.03 223.05 745.07 226.08
  C 739.99 233.93 730.24 235.01 723.13 229.06
  C 721.01 227.28 719.20 223.35 718.07 221.62
  A 0.70 0.69 71.9 0 0 717.45 221.30
  Q 709.53 221.53 696.50 221.30
  C 691.65 221.22 689.93 221.69 686.73 225.05
  Q 679.89 232.20 674.78 237.02
  C 671.38 240.22 668.21 241.53 663.10 241.46
  Q 657.19 241.37 652.94 241.10
  A 4.59 4.58 -65.2 0 0 649.45 242.39
  Q 627.69 263.67 619.37 272.12
  Q 618.27 273.24 615.75 273.28
  Q 605.40 273.45 583.15 273.37
  A 0.59 0.58 0.5 0 1 582.56 272.78
  Q 582.57 267.12 582.74 262.03
  Q 582.88 258.12 586.24 254.73
  Q 601.71 239.07 612.49 228.49
  C 614.62 226.40 615.76 224.82 615.89 221.80
  C 616.30 212.42 616.09 199.54 616.07 177.49
  Q 616.06 173.81 618.37 171.64
  Q 630.19 160.46 634.90 155.66
  C 636.20 154.33 636.88 152.58 636.87 150.62
  Q 636.83 141.56 637.03 132.50
  C 637.08 130.12 637.67 128.64 639.36 126.91
  Q 652.97 112.97 655.57 110.08
  Q 658.62 106.70 658.84 102.13
  A 2.79 2.75 -64.5 0 0 658.17 100.19
  C 654.80 96.27 652.46 90.78 653.91 85.53
  Q 656.57 75.85 667.23 73.62
  C 672.87 72.43 677.77 75.75 681.09 79.82
  C 684.11 83.51 684.10 90.69 682.07 94.89
  C 679.22 100.79 672.46 103.56 666.12 103.10
  A 0.95 0.95 0.0 0 0 665.10 104.05
  C 665.10 107.09 665.51 112.61 663.04 115.04
  Q 662.86 115.22 648.39 129.39
  C 646.03 131.70 644.76 133.46 644.88 136.88
  Q 645.23 147.45 645.04 151.74
  C 644.87 155.44 644.83 156.71 642.11 159.68
  Q 634.39 168.11 625.77 176.00
  C 624.43 177.22 624.04 178.61 624.04 180.53
  Q 624.04 209.68 624.10 221.00
  C 624.12 225.23 624.56 228.90 621.95 231.46
  Q 615.31 237.98 608.95 244.52
  C 604.24 249.37 598.87 253.93 593.84 259.11
  C 592.60 260.39 591.45 262.51 591.64 263.95
  A 1.86 1.84 87.2 0 0 593.41 265.57
  Q 600.63 265.80 611.47 265.54
  Q 613.63 265.49 615.69 263.44
  Q 629.19 250.11 642.15 237.15
  C 644.28 235.02 643.98 230.68 644.44 227.75
  Q 644.74 225.81 647.10 223.35
  Q 651.65 218.61 655.28 214.80
  Q 656.71 213.30 656.74 210.98
  Q 656.87 196.91 656.79 190.51
  C 656.74 186.15 661.54 181.56 664.89 178.38
  Q 671.18 172.41 686.23 157.24
  Q 688.13 155.32 689.94 152.68
  A 1.64 1.62 56.5 0 0 690.19 151.43
  Q 690.04 150.76 689.80 145.82
  Q 689.44 138.65 695.13 133.91
  C 708.45 122.80 726.59 138.74 716.57 153.50
  Q 714.07 157.18 709.39 158.44
  Q 702.59 160.27 696.89 157.31
  Z
  M 675.8909 87.2674
  A 7.24 6.75 -9.0 0 0 667.6841 81.7331
  A 7.24 6.75 -9.0 0 0 661.5891 89.5326
  A 7.24 6.75 -9.0 0 0 669.7959 95.0669
  A 7.24 6.75 -9.0 0 0 675.8909 87.2674
  Z
  M 711.2567 142.6893
  A 7.03 6.83 -18.5 0 0 702.4228 138.4429
  A 7.03 6.83 -18.5 0 0 697.9233 147.1507
  A 7.03 6.83 -18.5 0 0 706.7572 151.3971
  A 7.03 6.83 -18.5 0 0 711.2567 142.6893
  Z
  M 739.55 218.07
  A 6.76 6.76 0.0 0 0 732.79 211.31
  A 6.76 6.76 0.0 0 0 726.03 218.07
  A 6.76 6.76 0.0 0 0 732.79 224.83
  A 6.76 6.76 0.0 0 0 739.55 218.07
  Z"
/>
<path d="
  M 635.08 273.08
  A 0.52 0.51 32.7 0 1 634.90 272.29
  L 639.81 266.37
  A 2.28 2.26 19.5 0 1 641.57 265.54
  L 691.39 265.54
  A 2.43 2.42 -78.1 0 0 693.61 264.09
  C 695.58 259.68 698.35 254.93 703.61 253.85
  Q 715.83 251.35 720.49 261.12
  C 726.09 272.86 714.29 286.48 701.65 281.11
  C 698.77 279.89 696.64 276.72 694.06 274.51
  Q 692.61 273.27 689.26 273.29
  Q 665.50 273.47 635.75 273.20
  Q 635.26 273.19 635.08 273.08
  Z
  M 714.36 267.65
  A 6.74 6.74 0.0 0 0 707.62 260.91
  A 6.74 6.74 0.0 0 0 700.88 267.65
  A 6.74 6.74 0.0 0 0 707.62 274.39
  A 6.74 6.74 0.0 0 0 714.36 267.65
  Z"
/>
</g>
<g fill="#404a4e">
<path d="
  M 541.14 550.09
  A 0.35 0.34 32.2 0 1 540.52 550.23
  Q 532.94 539.70 524.93 530.10
  C 517.67 521.39 508.46 512.46 498.06 508.96
  Q 494.18 507.65 483.16 506.00
  A 2.68 2.57 42.6 0 0 482.25 506.02
  L 479.48 506.56
  A 0.72 0.72 0.0 0 1 478.75 505.45
  Q 480.20 503.34 482.73 499.70
  Q 487.23 493.22 487.32 484.75
  Q 487.33 483.97 487.40 367.41
  A 0.63 0.63 0.0 0 0 486.29 367.00
  Q 486.17 367.14 485.97 367.99
  Q 485.88 368.34 485.44 368.91
  C 473.23 384.70 462.52 399.25 451.42 413.65
  Q 438.72 430.13 429.47 442.90
  A 0.89 0.88 -45.5 0 1 428.04 442.92
  L 369.63 365.39
  A 0.39 0.39 0.0 0 0 368.94 365.55
  C 368.69 366.87 368.99 368.30 368.98 369.83
  Q 368.92 395.79 368.91 484.00
  C 368.91 490.04 370.46 496.31 374.54 500.75
  Q 376.35 502.71 378.57 505.46
  A 0.68 0.68 0.0 0 1 378.05 506.57
  Q 374.38 506.63 364.17 507.66
  C 357.08 508.37 348.70 512.75 342.67 517.90
  C 335.93 523.65 329.28 530.65 324.09 538.70
  Q 320.81 543.78 316.84 548.29
  A 0.54 0.54 0.0 0 1 315.94 547.70
  Q 317.54 544.34 318.22 542.77
  Q 320.85 536.75 326.57 521.04
  C 328.25 516.41 329.59 510.48 330.70 506.03
  C 333.39 495.32 334.35 485.73 334.34 474.23
  Q 334.22 359.94 334.27 348.01
  C 334.30 340.29 333.28 332.00 328.29 325.96
  Q 324.52 321.40 318.88 316.85
  C 317.54 315.78 315.97 315.49 314.97 314.72
  A 0.30 0.30 0.0 0 1 315.09 314.19
  Q 315.21 314.16 318.25 314.76
  Q 319.47 314.99 321.40 315.00
  Q 351.54 315.08 366.75 314.94
  Q 372.76 314.89 375.72 315.26
  A 1.20 1.19 -12.7 0 1 376.57 315.79
  L 428.45 396.23
  A 0.46 0.46 0.0 0 0 429.22 396.23
  L 481.05 315.37
  A 0.61 0.60 -73.5 0 1 481.56 315.09
  Q 517.45 314.98 525.50 315.02
  C 529.81 315.04 535.97 314.01 541.05 315.09
  A 0.42 0.42 0.0 0 1 541.14 315.88
  L 539.26 316.75
  A 3.38 3.26 -80.8 0 0 538.18 317.56
  Q 536.55 319.44 533.04 322.03
  Q 526.32 326.99 523.32 335.22
  Q 522.38 337.81 522.41 344.50
  Q 522.49 365.46 522.34 476.48
  Q 522.32 494.44 526.18 508.64
  Q 531.43 527.95 540.89 548.16
  Q 541.32 549.08 541.14 550.09
  Z"
/>
<ellipse cx="0.00" cy="0.00" transform="translate(228.25,353.07) rotate(-80.2)" rx="4.60" ry="4.48"/>
<ellipse cx="0.00" cy="0.00" transform="translate(191.43,354.42) rotate(-13.5)" rx="4.85" ry="4.49"/>
<circle cx="311.71" cy="370.64" r="4.14"/>
<ellipse cx="0.00" cy="0.00" transform="translate(544.26,370.66) rotate(-72.5)" rx="4.30" ry="4.01"/>
<circle cx="671.80" cy="382.08" r="4.48"/>
<ellipse cx="0.00" cy="0.00" transform="translate(355.10,545.75) rotate(0.7)" rx="4.22" ry="3.79"/>
<ellipse cx="0.00" cy="0.00" transform="translate(506.13,546.00) rotate(-12.9)" rx="4.26" ry="3.77"/>
<circle cx="321.16" cy="618.81" r="4.46"/>
<circle cx="534.03" cy="618.70" r="4.32"/>
<circle cx="274.96" cy="618.93" r="4.31"/>
<circle cx="579.29" cy="618.97" r="4.40"/>
<rect x="-3.40" y="-3.21" transform="translate(428.35,646.61) rotate(-43.5)" width="6.80" height="6.42" rx="2.03"/>
</g>
</svg>
