<?xml version="1.0" encoding="UTF-8" standalone="no"?>
<!DOCTYPE svg PUBLIC "-//W3C//DTD SVG 1.1//EN" "http://www.w3.org/Graphics/SVG/1.1/DTD/svg11.dtd">
<svg xmlns="http://www.w3.org/2000/svg" version="1.1" viewBox="0.00 0.00 190.00 227.00">
<g fill="#cc7037" fill-opacity="0.992">
<path d="
  M 173.56 132.06
  A 0.88 0.88 0.0 0 0 172.95 132.91
  C 173.32 145.66 168.07 159.26 160.13 168.87
  Q 145.87 186.13 124.85 192.06
  C 121.92 192.88 119.38 193.00 116.49 192.76
  A 0.77 0.77 0.0 0 1 115.78 191.93
  Q 116.02 188.77 117.87 186.58
  A 2.00 1.97 11.4 0 1 118.82 185.96
  Q 130.28 182.45 140.44 175.91
  C 154.26 167.02 164.58 151.34 165.05 134.53
  A 0.67 0.66 -83.0 0 0 164.54 133.87
  L 156.00 131.95
  A 0.77 0.77 0.0 0 0 155.09 132.49
  Q 151.88 143.50 144.30 153.04
  Q 143.38 154.20 138.21 159.14
  C 127.25 169.61 110.65 175.21 96.50 175.61
  C 70.37 176.34 46.56 159.74 37.48 135.28
  C 37.03 134.08 37.01 132.87 36.66 132.22
  A 0.75 0.75 0.0 0 0 35.82 131.85
  C 19.54 135.96 5.80 128.77 4.02 111.27
  Q 3.09 102.18 4.04 95.04
  Q 5.61 83.17 15.35 76.52
  A 2.59 2.57 75.1 0 0 16.47 74.57
  Q 16.73 71.07 16.82 68.38
  C 16.94 64.97 18.26 59.43 19.35 56.47
  C 28.32 32.12 44.85 15.83 68.99 6.94
  Q 78.48 3.45 89.73 3.07
  C 102.45 2.65 114.79 3.61 126.55 8.47
  Q 150.53 18.37 164.52 40.72
  Q 174.56 56.75 175.21 75.92
  A 1.17 1.17 0.0 0 0 175.91 76.96
  C 189.70 83.19 188.21 99.60 187.62 111.74
  C 187.16 121.28 183.10 129.11 173.56 132.06
  Z
  M 35.65 74.42
  Q 37.23 65.00 42.14 55.86
  C 50.62 40.10 65.51 28.15 82.92 23.65
  C 103.65 18.29 124.00 25.15 138.78 40.26
  Q 144.21 45.81 149.69 55.43
  C 153.04 61.31 154.57 67.62 156.61 74.02
  A 1.80 1.79 -13.4 0 0 158.60 75.24
  L 165.82 74.11
  A 1.40 1.40 0.0 0 0 167.00 72.61
  C 165.63 56.65 158.83 44.57 148.20 33.02
  C 135.11 18.78 116.50 11.28 97.26 11.40
  Q 86.80 11.47 82.75 12.19
  Q 62.82 15.75 49.03 27.55
  C 36.55 38.24 26.88 53.56 25.07 70.01
  Q 24.82 72.35 24.95 73.98
  A 0.86 0.85 -2.2 0 0 25.81 74.77
  L 35.25 74.77
  A 0.41 0.40 -85.9 0 0 35.65 74.42
  Z
  M 138.63 146.28
  C 144.18 139.11 148.86 129.30 148.90 120.50
  Q 148.99 97.80 148.97 85.64
  Q 148.96 78.33 147.55 72.99
  C 140.79 47.29 118.04 27.54 90.71 30.98
  Q 74.99 32.95 62.32 44.13
  Q 57.19 48.66 55.11 51.37
  Q 46.73 62.23 43.68 75.43
  C 43.05 78.16 42.99 80.53 42.50 82.78
  Q 42.02 84.94 41.99 88.30
  Q 41.80 110.37 41.98 114.25
  C 42.51 125.88 46.18 138.23 53.65 147.10
  C 63.83 159.19 76.59 166.70 92.48 167.01
  C 110.11 167.35 127.85 160.20 138.63 146.28
  Z
  M 34.20 122.41
  L 33.74 85.04
  A 2.39 2.39 0.0 0 0 31.32 82.68
  L 26.01 82.74
  A 17.07 14.20 89.3 0 0 12.02 99.98
  L 12.12 108.00
  A 17.07 14.20 89.3 0 0 26.53 124.90
  L 31.84 124.83
  A 2.39 2.39 0.0 0 0 34.20 122.41
  Z
  M 157.40 85.16
  L 157.20 123.10
  A 2.25 2.25 0.0 0 0 159.44 125.36
  L 166.34 125.40
  A 14.16 12.47 -89.7 0 0 178.88 111.31
  L 178.96 97.19
  A 14.16 12.47 -89.7 0 0 166.56 82.96
  L 159.66 82.93
  A 2.25 2.25 0.0 0 0 157.40 85.16
  Z"
/>
<ellipse cx="0.00" cy="0.00" transform="translate(72.56,86.82) rotate(-85.5)" rx="7.15" ry="6.76"/>
<ellipse cx="0.00" cy="0.00" transform="translate(120.06,86.72) rotate(-93.6)" rx="7.17" ry="6.96"/>
<path d="
  M 121.92 120.47
  C 122.45 126.08 119.01 130.00 115.70 134.34
  A 4.03 3.97 89.6 0 1 115.04 135.02
  Q 104.94 143.24 91.50 141.72
  Q 76.80 140.06 70.06 127.15
  Q 68.69 124.52 68.46 121.52
  A 1.61 1.60 87.8 0 1 70.06 119.79
  L 75.57 119.79
  A 1.92 1.92 0.0 0 1 77.46 121.36
  C 79.64 133.16 94.21 135.18 103.45 131.92
  C 109.02 129.96 112.12 126.04 114.07 120.84
  A 1.56 1.56 0.0 0 1 115.53 119.83
  L 121.22 119.83
  A 0.71 0.70 87.3 0 1 121.92 120.47
  Z"
/>
<path d="
  M 115.0951 206.3446
  A 0.27 0.27 0.0 0 1 115.0951 206.7265
  L 96.5265 225.2951
  A 0.27 0.27 0.0 0 1 96.1446 225.2951
  L 77.2649 206.4154
  A 0.27 0.27 0.0 0 1 77.2649 206.0335
  L 95.8335 187.4649
  A 0.27 0.27 0.0 0 1 96.2154 187.4649
  L 115.0951 206.3446
  Z
  M 96.11 200.05
  L 89.87 206.29
  A 0.40 0.40 0.0 0 0 89.87 206.85
  L 95.45 212.43
  A 0.34 0.34 0.0 0 0 95.93 212.43
  L 101.92 206.44
  A 0.52 0.51 -45.4 0 0 101.92 205.71
  L 96.26 200.05
  A 0.11 0.11 0.0 0 0 96.11 200.05
  Z"
/>
</g>
</svg>
