<?xml version="1.0" encoding="UTF-8" standalone="no"?>
<!DOCTYPE svg PUBLIC "-//W3C//DTD SVG 1.1//EN" "http://www.w3.org/Graphics/SVG/1.1/DTD/svg11.dtd">
<svg xmlns="http://www.w3.org/2000/svg" version="1.1" viewBox="0.00 0.00 310.00 340.00">
<g fill="#cc7139">
<path d="
  M 104.92 183.55
  Q 90.30 163.77 85.30 138.58
  C 83.18 127.90 83.49 116.63 83.75 106.01
  Q 83.83 102.68 84.43 99.21
  Q 88.71 74.31 101.68 54.41
  Q 103.24 52.01 110.08 43.53
  C 123.08 27.39 141.02 15.59 160.38 8.90
  Q 167.05 6.60 173.35 5.59
  C 186.66 3.46 199.73 3.34 211.58 4.68
  C 226.69 6.40 242.04 12.91 255.10 20.68
  C 286.24 39.20 304.47 71.73 308.32 107.23
  Q 308.91 112.70 308.13 126.73
  Q 307.72 134.07 303.58 149.44
  C 299.53 164.42 291.17 178.83 280.81 190.46
  Q 257.85 216.23 223.89 225.90
  Q 219.73 227.09 214.23 227.97
  C 209.99 228.65 205.66 229.69 201.19 229.97
  Q 189.34 230.72 175.91 228.09
  Q 131.39 219.38 104.92 183.55
  Z
  M 233.0597 21.2992
  A 102.39 102.21 -68.6 0 0 100.5368 79.3359
  A 102.39 102.21 -68.6 0 0 158.3403 211.9608
  A 102.39 102.21 -68.6 0 0 290.8632 153.9241
  A 102.39 102.21 -68.6 0 0 233.0597 21.2992
  Z"
/>
<path d="
  M 192.11 105.35
  A 0.13 0.04 -61.8 0 0 192.12 105.30
  L 192.13 44.20
  A 0.55 0.55 0.0 0 0 191.42 43.68
  Q 186.56 45.15 181.01 44.02
  A 1.01 1.00 -64.1 0 1 180.45 42.38
  L 184.43 37.76
  A 5.36 5.21 -87.4 0 1 185.25 36.99
  Q 190.88 32.80 195.38 27.18
  A 0.72 0.72 0.0 0 1 196.47 27.15
  Q 202.30 33.65 209.43 39.56
  Q 210.85 40.74 211.83 42.78
  A 0.92 0.92 0.0 0 1 211.00 44.10
  L 200.83 44.10
  A 0.94 0.94 0.0 0 0 199.89 45.07
  C 200.00 48.54 200.40 52.39 200.41 56.18
  Q 200.47 79.22 200.34 106.35
  A 0.55 0.55 0.0 0 0 200.99 106.89
  Q 201.41 106.81 201.84 106.34
  C 209.05 98.48 214.96 92.48 222.76 84.25
  Q 235.84 70.45 243.20 63.60
  A 1.06 1.05 34.4 0 0 242.87 61.85
  Q 238.93 60.28 236.46 57.45
  A 1.11 1.11 0.0 0 1 237.13 55.63
  Q 239.62 55.25 246.34 54.81
  C 250.79 54.51 253.96 53.29 258.01 52.52
  A 1.80 1.80 0.0 0 1 260.04 53.66
  Q 260.35 54.48 260.29 56.01
  Q 259.94 64.11 259.68 71.75
  Q 259.61 73.66 259.10 76.26
  A 0.91 0.91 0.0 0 1 257.83 76.92
  C 254.92 75.62 253.31 70.29 252.47 67.81
  A 0.56 0.56 0.0 0 0 251.54 67.61
  C 237.65 82.28 223.77 96.86 208.77 110.26
  A 0.67 0.67 0.0 0 0 209.22 111.43
  L 263.87 111.43
  A 1.08 1.08 0.0 0 0 264.91 110.06
  Q 263.55 105.30 266.05 100.35
  A 0.59 0.58 38.5 0 1 267.02 100.24
  Q 274.19 108.85 282.96 115.37
  A 0.87 0.86 41.7 0 1 283.04 116.70
  Q 281.14 118.50 278.25 120.17
  A 7.17 6.86 8.4 0 0 277.22 120.90
  Q 273.02 124.57 268.71 129.19
  Q 267.35 130.64 265.45 131.13
  A 0.89 0.88 67.2 0 1 264.48 130.73
  Q 263.18 128.57 263.61 127.42
  Q 265.06 123.62 264.67 120.04
  A 0.63 0.62 86.9 0 0 264.05 119.48
  L 208.25 119.48
  A 0.58 0.58 0.0 0 0 207.84 120.46
  L 249.61 164.16
  A 0.94 0.93 -48.0 0 0 251.03 164.08
  L 256.62 156.85
  A 1.17 1.16 41.9 0 1 258.38 156.76
  C 260.09 158.57 259.83 161.88 259.88 165.03
  C 259.94 169.09 261.25 172.86 261.14 176.87
  A 1.59 1.58 81.6 0 1 260.06 178.33
  Q 259.06 178.67 257.25 178.67
  Q 249.79 178.65 242.81 178.37
  Q 239.55 178.24 237.21 177.54
  A 1.16 1.16 0.0 0 1 236.80 175.54
  L 241.46 171.67
  A 3.59 3.55 -75.1 0 1 242.38 171.13
  L 244.32 170.36
  A 0.80 0.80 0.0 0 0 244.49 168.97
  Q 239.80 165.52 234.96 160.79
  Q 223.65 149.73 213.31 138.79
  C 209.63 134.89 205.64 131.48 201.65 127.13
  A 0.73 0.73 0.0 0 0 200.39 127.62
  L 200.39 188.00
  A 1.27 1.26 -1.3 0 0 201.72 189.26
  Q 206.62 189.05 209.24 188.86
  Q 210.91 188.74 212.21 189.61
  A 0.65 0.65 0.0 0 1 212.33 190.59
  Q 207.87 195.36 201.41 201.90
  Q 200.26 203.06 197.33 208.87
  A 0.43 0.43 0.0 0 1 196.69 209.03
  Q 196.55 208.93 196.43 208.42
  Q 196.31 207.91 196.25 207.83
  C 192.62 202.96 189.33 200.26 182.88 194.08
  Q 181.05 192.33 180.59 190.64
  A 1.28 1.28 0.0 0 1 181.83 189.02
  L 190.43 189.02
  A 1.63 1.63 0.0 0 0 192.06 187.39
  L 192.06 127.73
  A 0.63 0.63 0.0 0 0 190.93 127.35
  Q 189.07 129.82 187.95 130.95
  Q 174.82 144.25 149.05 169.79
  A 1.01 1.01 0.0 0 0 149.58 171.50
  Q 154.05 172.30 157.34 173.58
  Q 158.67 174.09 159.31 176.43
  A 0.82 0.81 -23.3 0 1 158.94 177.34
  Q 157.06 178.46 154.74 178.49
  Q 145.97 178.61 136.09 178.86
  A 2.11 2.10 82.8 0 1 133.98 177.21
  Q 133.58 175.39 133.76 174.00
  Q 134.80 165.89 135.67 157.94
  A 1.17 1.16 14.9 0 1 137.30 157.00
  Q 141.07 158.64 141.37 163.16
  A 0.62 0.61 89.0 0 0 141.96 163.73
  Q 143.75 163.77 144.79 162.79
  C 150.81 157.17 155.92 150.70 161.63 144.95
  Q 169.57 136.95 177.81 128.80
  Q 177.87 128.74 185.68 120.38
  A 0.54 0.54 0.0 0 0 185.28 119.47
  L 126.30 119.47
  A 0.60 0.59 80.5 0 0 125.74 120.26
  Q 127.22 124.54 126.94 129.98
  Q 126.90 130.78 126.67 131.21
  A 0.50 0.50 0.0 0 1 125.88 131.33
  L 115.83 121.40
  A 1.27 1.20 -6.8 0 0 115.48 121.14
  C 111.85 119.18 109.37 118.37 107.77 115.70
  A 1.00 1.00 0.0 0 1 108.03 114.38
  C 111.00 112.16 112.98 110.56 115.44 107.94
  Q 119.96 103.13 126.37 98.55
  A 0.31 0.31 0.0 0 1 126.83 98.66
  C 128.00 101.10 125.75 107.75 124.54 110.34
  A 0.80 0.79 -77.6 0 0 125.26 111.47
  L 185.18 111.47
  A 0.40 0.40 0.0 0 0 185.47 110.79
  C 180.52 105.63 175.03 100.92 170.49 96.41
  Q 156.90 82.92 145.05 69.98
  A 1.07 1.07 0.0 0 0 143.31 70.21
  Q 140.92 74.73 136.20 78.16
  A 0.42 0.42 0.0 0 1 135.53 77.86
  C 134.88 71.48 135.33 63.01 134.53 56.75
  C 134.10 53.41 136.70 53.15 139.29 53.62
  Q 144.81 54.65 152.35 54.27
  A 5.06 4.93 50.7 0 1 153.85 54.44
  L 158.28 55.68
  A 1.27 1.27 0.0 0 1 158.58 58.01
  L 150.53 62.65
  A 1.06 1.05 -37.9 0 0 150.32 64.32
  Q 172.95 86.15 191.24 105.27
  Q 191.95 106.01 192.11 105.35
  Z"
/>
<path d="
  M 272.45 215.12
  Q 272.80 218.53 272.82 220.25
  Q 273.04 252.56 272.85 270.01
  C 272.75 278.98 271.94 288.14 262.93 292.31
  Q 259.50 293.90 248.35 293.88
  Q 187.69 293.77 170.96 293.73
  A 0.35 0.35 0.0 0 0 170.62 294.15
  Q 171.73 299.33 172.54 302.47
  Q 175.12 312.51 180.48 320.31
  Q 181.68 322.06 182.71 322.68
  A 2.27 2.17 -26.3 0 0 183.67 322.98
  Q 188.11 323.30 193.74 323.13
  C 197.83 323.01 202.54 324.69 200.49 329.98
  Q 198.80 334.36 194.00 334.36
  Q 139.59 334.34 93.75 334.40
  Q 89.42 334.41 84.01 334.17
  A 3.25 3.24 -81.1 0 1 81.02 330.06
  L 81.61 327.88
  A 4.61 4.60 7.1 0 1 85.97 324.50
  L 97.02 324.30
  A 2.66 2.64 -59.7 0 0 98.26 323.97
  C 104.29 320.69 107.97 308.90 109.73 301.95
  C 110.42 299.24 110.48 296.93 111.53 294.56
  A 0.55 0.55 0.0 0 0 111.03 293.79
  Q 48.69 293.69 24.00 293.81
  Q 15.17 293.86 9.01 287.65
  C 4.02 282.62 4.25 276.37 4.26 269.03
  Q 4.35 177.97 4.27 126.50
  C 4.26 123.03 4.47 119.65 6.04 116.80
  C 9.94 109.68 15.13 109.09 23.62 109.15
  Q 59.77 109.37 67.63 109.49
  A 2.12 2.12 0.0 0 1 69.70 111.29
  Q 70.37 115.63 69.53 119.00
  A 2.05 2.04 6.8 0 1 67.54 120.56
  L 18.48 120.56
  A 1.05 1.04 -0.0 0 0 17.43 121.60
  L 17.43 255.63
  A 0.73 0.73 0.0 0 0 18.29 256.35
  Q 19.68 256.11 21.63 256.11
  Q 230.36 255.62 258.25 256.10
  Q 260.22 256.13 260.52 256.13
  A 0.84 0.83 0.3 0 0 261.36 255.31
  Q 261.45 249.06 261.34 222.61
  C 261.31 214.96 268.07 217.83 271.87 214.87
  A 0.36 0.36 0.0 0 1 272.45 215.12
  Z
  M 260.22 266.36
  L 18.78 266.36
  A 1.32 1.32 0.0 0 0 17.46 267.68
  L 17.46 275.07
  A 7.99 7.86 90.0 0 0 25.32 283.06
  L 253.68 283.06
  A 7.99 7.86 90.0 0 0 261.54 275.07
  L 261.54 267.68
  A 1.32 1.32 0.0 0 0 260.22 266.36
  Z
  M 112.41 323.85
  A 0.36 0.36 0.0 0 0 112.74 324.36
  L 170.53 324.36
  A 0.53 0.53 0.0 0 0 170.96 323.53
  C 167.03 317.96 164.66 309.50 162.97 304.54
  Q 160.91 298.49 160.80 294.31
  A 0.56 0.56 0.0 0 0 160.24 293.76
  L 122.03 293.76
  A 0.74 0.73 -85.4 0 0 121.31 294.38
  Q 118.93 309.83 112.41 323.85
  Z"
/>
</g>
</svg>
